export default{"glyphs":{"0":{"ha":1006,"x_min":0,"x_max":0,"o":"m 501 -17 b 79 483 246 -17 79 206 l 79 486 b 504 989 79 764 249 989 b 926 489 758 989 926 767 l 926 486 b 501 -17 926 208 757 -17 m 504 138 b 750 483 656 138 750 293 l 750 486 b 501 835 750 678 651 835 b 256 489 351 835 256 682 l 256 486 b 504 138 256 294 353 138 "},"1":{"ha":550,"x_min":0,"x_max":0,"o":"m 247 806 l 72 757 l 36 896 l 299 979 l 417 979 l 417 0 l 247 0 "},"2":{"ha":851,"x_min":0,"x_max":0,"o":"m 68 135 l 403 419 b 585 682 536 533 585 594 b 428 833 585 778 517 833 b 204 688 339 833 278 785 l 82 783 b 440 986 175 913 267 986 b 761 696 631 986 761 869 l 761 693 b 508 317 761 540 681 457 l 308 150 l 771 150 l 771 0 l 68 0 "},"3":{"ha":858,"x_min":0,"x_max":0,"o":"m 432 -17 b 60 154 263 -17 142 54 l 179 265 b 435 138 249 183 326 138 b 603 285 531 138 603 196 l 603 288 b 379 438 603 383 515 438 l 300 438 l 272 544 l 535 824 l 114 824 l 114 972 l 757 972 l 757 844 l 486 567 b 772 294 633 549 772 474 l 772 292 b 432 -17 772 113 635 -17 "},"4":{"ha":947,"x_min":0,"x_max":0,"o":"m 572 218 l 82 218 l 50 340 l 590 979 l 736 979 l 736 358 l 875 358 l 875 218 l 736 218 l 736 0 l 572 0 m 572 358 l 572 743 l 253 358 "},"5":{"ha":865,"x_min":0,"x_max":0,"o":"m 422 -17 b 65 132 274 -17 157 43 l 171 256 b 421 139 249 183 331 139 b 614 307 538 139 614 206 l 614 310 b 413 471 614 408 531 471 b 233 428 343 471 283 451 l 131 496 l 158 972 l 740 972 l 740 821 l 306 821 l 290 593 b 444 621 336 610 379 621 b 783 315 633 621 783 521 l 783 313 b 422 -17 783 114 638 -17 "},"6":{"ha":911,"x_min":0,"x_max":0,"o":"m 468 -17 b 197 86 349 -17 263 21 b 79 457 124 160 79 261 l 79 460 b 496 989 79 757 221 989 b 793 881 622 989 708 949 l 701 749 b 490 833 633 801 576 833 b 257 524 321 833 260 657 b 490 622 314 583 386 622 b 829 317 678 622 829 511 l 829 314 b 468 -17 829 121 672 -17 m 464 132 b 658 307 585 132 658 207 l 658 310 b 460 479 658 407 581 479 b 263 308 339 479 263 401 l 263 306 b 464 132 263 207 343 132 "},"7":{"ha":846,"x_min":0,"x_max":0,"o":"m 583 822 l 94 822 l 94 972 l 778 972 l 778 843 l 340 0 l 147 0 "},"8":{"ha":875,"x_min":0,"x_max":0,"o":"m 438 -14 b 67 265 225 -14 67 97 l 67 268 b 242 504 67 385 132 458 b 100 721 160 547 100 613 l 100 724 b 438 986 100 872 243 986 b 775 724 632 986 775 874 l 775 721 b 633 504 775 613 715 547 b 808 271 740 456 808 386 l 808 268 b 438 -14 808 94 650 -14 m 438 561 b 611 704 538 561 611 621 l 611 707 b 438 843 611 782 542 843 b 264 708 333 843 264 782 l 264 706 b 438 561 264 621 338 561 m 438 129 b 642 275 565 129 642 194 l 642 278 b 438 425 642 367 553 425 b 235 278 322 425 235 367 l 235 275 b 438 129 235 196 310 129 "},"9":{"ha":911,"x_min":0,"x_max":0,"o":"m 419 139 b 656 446 592 139 654 317 b 426 342 601 381 526 342 b 82 650 219 342 82 463 l 82 653 b 444 989 82 843 229 989 b 715 886 567 989 646 954 b 832 515 786 814 832 707 l 832 513 b 415 -17 832 200 678 -17 b 104 100 281 -17 186 32 l 197 231 b 419 139 271 169 336 139 m 451 485 b 649 660 575 485 649 565 l 649 663 b 446 842 649 764 569 842 b 253 661 325 842 253 761 l 253 658 b 451 485 253 557 331 485 "},"A":{"ha":1097,"x_min":0,"x_max":0,"o":"m 469 979 l 628 979 l 1056 0 l 875 0 l 776 235 l 317 235 l 217 0 l 42 0 m 714 386 l 546 775 l 379 386 "},"B":{"ha":1003,"x_min":0,"x_max":0,"o":"m 125 972 l 561 972 b 815 886 672 972 760 942 b 881 725 858 843 881 790 l 881 722 b 742 506 881 606 814 543 b 935 269 856 467 935 401 l 935 267 b 575 0 935 93 792 0 l 125 0 m 710 697 b 539 821 710 774 649 821 l 293 821 l 293 563 l 526 563 b 710 694 636 563 710 606 m 764 288 b 564 418 764 369 699 418 l 293 418 l 293 151 l 576 151 b 764 285 693 151 764 197 l 764 288 "},"C":{"ha":1025,"x_min":0,"x_max":0,"o":"m 576 -17 b 82 483 293 -17 82 204 l 82 486 b 583 989 82 763 289 989 b 964 838 763 989 871 926 l 854 711 b 582 832 776 783 693 832 b 261 489 397 832 261 679 l 261 486 b 582 142 261 296 396 142 b 861 267 701 142 778 189 l 971 156 b 576 -17 869 50 758 -17 "},"D":{"ha":1086,"x_min":0,"x_max":0,"o":"m 125 972 l 488 972 b 1004 489 793 972 1004 763 l 1004 486 b 488 0 1004 213 793 0 l 125 0 m 296 817 l 296 156 l 488 156 b 825 483 692 156 825 293 l 825 486 b 488 817 825 676 692 817 "},"E":{"ha":931,"x_min":0,"x_max":0,"o":"m 125 972 l 846 972 l 846 819 l 296 819 l 296 567 l 783 567 l 783 414 l 296 414 l 296 153 l 853 153 l 853 0 l 125 0 "},"F":{"ha":911,"x_min":0,"x_max":0,"o":"m 125 972 l 849 972 l 849 817 l 296 817 l 296 551 l 786 551 l 786 396 l 296 396 l 296 0 l 125 0 "},"G":{"ha":1089,"x_min":0,"x_max":0,"o":"m 586 -17 b 82 483 282 -17 82 200 l 82 486 b 583 989 82 758 290 989 b 957 857 753 989 857 942 l 849 728 b 576 832 774 792 700 832 b 261 489 397 832 261 675 l 261 486 b 592 139 261 286 393 139 b 826 213 683 139 767 168 l 826 394 l 578 394 l 578 543 l 992 543 l 992 135 b 586 -17 896 53 758 -17 "},"H":{"ha":1056,"x_min":0,"x_max":0,"o":"m 125 972 l 296 972 l 296 568 l 760 568 l 760 972 l 931 972 l 931 0 l 760 0 l 760 410 l 296 410 l 296 0 l 125 0 "},"I":{"ha":440,"x_min":0,"x_max":0,"o":"m 135 972 l 306 972 l 306 0 l 135 0 "},"J":{"ha":778,"x_min":0,"x_max":0,"o":"m 340 -14 b 29 143 190 -14 93 56 l 142 260 b 338 144 199 186 256 144 b 492 336 429 144 492 206 l 492 972 l 668 972 l 668 331 b 576 72 668 215 633 129 b 340 -14 519 15 438 -14 "},"K":{"ha":1008,"x_min":0,"x_max":0,"o":"m 125 972 l 296 972 l 296 483 l 758 972 l 969 972 l 564 554 l 988 0 l 779 0 l 447 438 l 296 282 l 296 0 l 125 0 "},"L":{"ha":860,"x_min":0,"x_max":0,"o":"m 125 972 l 296 972 l 296 156 l 807 156 l 807 0 l 125 0 "},"M":{"ha":1206,"x_min":0,"x_max":0,"o":"m 125 972 l 307 972 l 603 513 l 899 972 l 1081 972 l 1081 0 l 910 0 l 910 697 l 603 239 l 597 239 l 293 694 l 293 0 l 125 0 "},"N":{"ha":1097,"x_min":0,"x_max":0,"o":"m 125 972 l 283 972 l 804 300 l 804 972 l 972 972 l 972 0 l 829 0 l 293 692 l 293 0 l 125 0 "},"O":{"ha":1181,"x_min":0,"x_max":0,"o":"m 589 -17 b 82 483 290 -17 82 210 l 82 486 b 592 989 82 760 293 989 b 1099 489 890 989 1099 763 l 1099 486 b 589 -17 1099 213 888 -17 m 592 142 b 919 483 785 142 919 294 l 919 486 b 589 832 919 675 782 832 b 261 489 396 832 261 678 l 261 486 b 592 142 261 297 399 142 "},"P":{"ha":928,"x_min":0,"x_max":0,"o":"m 125 972 l 508 972 b 878 647 736 972 878 843 l 878 644 b 489 313 878 426 703 313 l 296 313 l 296 0 l 125 0 m 494 467 b 704 640 624 467 704 539 l 704 643 b 494 817 704 757 622 817 l 296 817 l 296 467 "},"Q":{"ha":1181,"x_min":0,"x_max":0,"o":"m 1001 -29 l 885 75 b 589 -17 803 18 703 -17 b 82 483 290 -17 82 210 l 82 486 b 592 989 82 760 293 989 b 1099 489 890 989 1099 763 l 1099 486 b 1000 188 1099 376 1063 272 l 1111 93 m 592 142 b 760 186 656 142 713 158 l 592 329 l 701 454 l 872 299 b 919 483 903 351 919 414 l 919 486 b 589 832 919 675 782 832 b 261 489 396 832 261 678 l 261 486 b 592 142 261 297 399 142 "},"R":{"ha":1004,"x_min":0,"x_max":0,"o":"m 125 972 l 558 972 b 839 875 681 972 776 936 b 919 665 890 822 919 750 l 919 663 b 689 368 919 503 824 407 l 951 0 l 749 0 l 510 339 l 296 339 l 296 0 l 125 0 m 546 490 b 746 653 668 490 746 554 l 746 656 b 544 817 746 760 671 817 l 296 817 l 296 490 "},"S":{"ha":889,"x_min":0,"x_max":0,"o":"m 465 -14 b 60 142 317 -14 176 38 l 163 264 b 469 138 256 183 350 138 b 642 260 575 138 642 188 l 642 263 b 422 411 642 332 603 369 b 99 701 215 461 99 522 l 99 704 b 431 986 99 871 238 986 b 783 864 572 986 685 943 l 692 735 b 428 835 604 800 517 835 b 269 719 328 835 269 783 l 269 717 b 501 564 269 642 314 608 b 813 279 707 514 813 440 l 813 276 b 465 -14 813 94 669 -14 "},"T":{"ha":900,"x_min":0,"x_max":0,"o":"m 364 814 l 56 814 l 56 972 l 844 972 l 844 814 l 536 814 l 536 0 l 364 0 "},"U":{"ha":1051,"x_min":0,"x_max":0,"o":"m 524 -15 b 110 413 271 -15 110 131 l 110 972 l 281 972 l 281 419 b 526 143 281 239 374 143 b 771 413 678 143 771 233 l 771 972 l 942 972 l 942 421 b 524 -15 942 131 778 -15 "},"V":{"ha":1042,"x_min":0,"x_max":0,"o":"m 42 972 l 231 972 l 524 225 l 815 972 l 1000 972 l 597 -7 l 446 -7 "},"W":{"ha":1550,"x_min":0,"x_max":0,"o":"m 50 972 l 235 972 l 467 251 l 706 975 l 850 975 l 1089 251 l 1321 972 l 1500 972 l 1163 -7 l 1014 -7 l 775 692 l 536 -7 l 389 -7 "},"X":{"ha":1013,"x_min":0,"x_max":0,"o":"m 947 972 l 608 497 l 961 0 l 760 0 l 503 371 l 247 0 l 51 0 l 403 494 l 65 972 l 267 972 l 508 619 l 751 972 "},"Y":{"ha":994,"x_min":0,"x_max":0,"o":"m 411 383 l 25 972 l 228 972 l 499 543 l 774 972 l 969 972 l 583 388 l 583 0 l 411 0 "},"Z":{"ha":975,"x_min":0,"x_max":0,"o":"m 90 126 l 664 821 l 108 821 l 108 972 l 888 972 l 888 846 l 313 151 l 888 151 l 888 0 l 90 0 "},"a":{"ha":815,"x_min":0,"x_max":0,"o":"m 317 -15 b 57 211 179 -15 57 64 l 57 214 b 360 450 57 372 181 450 b 557 419 442 450 500 438 l 557 438 b 375 597 557 542 493 597 b 165 551 293 597 232 579 l 121 683 b 397 743 201 719 281 743 b 640 661 507 743 589 714 b 719 435 694 608 719 531 l 719 0 l 556 0 l 556 92 b 317 -15 506 32 429 -15 m 364 107 b 560 264 475 107 560 171 l 560 314 b 393 343 517 331 460 343 b 221 221 285 343 221 297 l 221 218 b 364 107 221 147 283 107 "},"b":{"ha":932,"x_min":0,"x_max":0,"o":"m 524 -15 b 274 114 401 -15 325 46 l 274 0 l 106 0 l 106 1014 l 274 1014 l 274 611 b 524 749 328 688 404 749 b 864 368 696 749 864 613 l 864 365 b 524 -15 864 122 697 -15 m 483 131 b 693 365 599 131 693 221 l 693 368 b 483 603 693 510 597 603 b 269 368 369 603 269 508 l 269 365 b 483 131 269 225 369 131 "},"c":{"ha":793,"x_min":0,"x_max":0,"o":"m 444 -17 b 65 363 226 -17 65 154 l 65 365 b 447 749 65 574 226 749 b 740 622 585 749 671 697 l 635 510 b 446 601 583 564 529 601 b 233 368 324 601 233 496 l 233 365 b 453 131 233 235 324 131 b 643 221 532 131 590 167 l 744 121 b 444 -17 672 40 588 -17 "},"d":{"ha":932,"x_min":0,"x_max":0,"o":"m 408 -15 b 68 365 236 -15 68 122 l 68 368 b 408 749 68 611 233 749 b 658 619 529 749 606 689 l 658 1014 l 826 1014 l 826 0 l 658 0 l 658 122 b 408 -15 604 46 528 -15 m 449 131 b 661 365 561 131 661 225 l 661 368 b 449 603 661 510 561 603 b 238 368 333 603 238 514 l 238 365 b 449 131 238 224 335 131 "},"e":{"ha":839,"x_min":0,"x_max":0,"o":"m 442 -17 b 65 364 229 -17 65 138 l 65 367 b 424 749 65 576 214 749 b 775 354 657 749 775 565 b 772 307 775 339 774 324 l 233 307 b 444 121 251 188 336 121 b 643 208 526 121 585 151 l 742 121 b 442 -17 672 38 576 -17 m 608 418 b 422 611 597 526 533 611 b 232 418 319 611 247 532 "},"f":{"ha":522,"x_min":0,"x_max":0,"o":"m 143 589 l 50 589 l 50 729 l 143 729 l 143 783 b 203 964 143 864 164 925 b 368 1022 242 1003 296 1022 b 504 1003 426 1022 467 1014 l 504 861 b 406 879 471 872 442 879 b 308 768 342 879 308 844 l 308 728 l 503 728 l 503 589 l 311 589 l 311 0 l 143 0 "},"g":{"ha":932,"x_min":0,"x_max":0,"o":"m 432 -225 b 104 -137 311 -225 199 -194 l 167 -11 b 428 -89 246 -60 328 -89 b 660 136 578 -89 660 -11 l 660 193 b 401 58 599 114 522 58 b 68 401 229 58 68 186 l 68 404 b 401 749 68 621 231 749 b 658 624 525 749 601 692 l 658 733 l 826 733 l 826 150 b 733 -126 826 26 794 -65 b 432 -225 667 -193 564 -225 m 446 201 b 661 403 563 201 661 283 l 661 406 b 446 607 661 525 563 607 b 238 406 329 607 238 526 l 238 403 b 446 201 238 283 331 201 "},"h":{"ha":861,"x_min":0,"x_max":0,"o":"m 106 1014 l 274 1014 l 274 621 b 503 749 321 689 389 749 b 764 468 668 749 764 638 l 764 0 l 596 0 l 596 417 b 439 596 596 531 539 596 b 274 414 342 596 274 528 l 274 0 l 106 0 "},"i":{"ha":397,"x_min":0,"x_max":0,"o":"m 108 1006 l 289 1006 l 289 846 l 108 846 m 115 733 l 283 733 l 283 0 l 115 0 "},"j":{"ha":397,"x_min":0,"x_max":0,"o":"m 108 1006 l 289 1006 l 289 846 l 108 846 m 71 -226 b -11 -219 38 -226 15 -224 l -11 -85 b 36 -89 6 -87 21 -89 b 115 0 83 -89 115 -64 l 115 733 l 283 733 l 283 -10 b 71 -226 283 -158 207 -226 "},"k":{"ha":808,"x_min":0,"x_max":0,"o":"m 106 1014 l 274 1014 l 274 408 l 578 733 l 782 733 l 490 435 l 792 0 l 594 0 l 378 318 l 274 210 l 274 0 l 106 0 "},"l":{"ha":397,"x_min":0,"x_max":0,"o":"m 115 1014 l 283 1014 l 283 0 l 115 0 "},"m":{"ha":1319,"x_min":0,"x_max":0,"o":"m 106 733 l 274 733 l 274 622 b 497 749 321 688 385 749 b 717 619 603 749 678 697 b 964 749 775 697 853 749 b 1221 468 1124 749 1221 647 l 1221 0 l 1053 0 l 1053 417 b 904 596 1053 533 999 596 b 747 414 813 596 747 532 l 747 0 l 579 0 l 579 418 b 431 596 579 532 524 596 b 274 414 338 596 274 526 l 274 0 l 106 0 "},"n":{"ha":861,"x_min":0,"x_max":0,"o":"m 106 733 l 274 733 l 274 621 b 503 749 321 689 389 749 b 764 468 668 749 764 638 l 764 0 l 596 0 l 596 417 b 439 596 596 531 539 596 b 274 414 342 596 274 528 l 274 0 l 106 0 "},"o":{"ha":913,"x_min":0,"x_max":0,"o":"m 454 -17 b 65 363 231 -17 65 154 l 65 365 b 457 749 65 575 232 749 b 847 368 682 749 847 578 l 847 365 b 454 -17 847 157 681 -17 m 457 131 b 679 363 593 131 679 236 l 679 365 b 454 601 679 494 586 601 b 233 368 319 601 233 496 l 233 365 b 457 131 233 238 326 131 "},"p":{"ha":932,"x_min":0,"x_max":0,"o":"m 106 733 l 274 733 l 274 611 b 524 749 328 688 404 749 b 864 368 696 749 864 613 l 864 365 b 524 -15 864 122 697 -15 b 274 114 401 -15 325 46 l 274 -222 l 106 -222 m 483 131 b 693 365 599 131 693 221 l 693 368 b 483 603 693 510 597 603 b 269 368 369 603 269 508 l 269 365 b 483 131 269 225 369 131 "},"q":{"ha":932,"x_min":0,"x_max":0,"o":"m 658 122 b 408 -15 604 46 528 -15 b 68 365 236 -15 68 122 l 68 368 b 408 749 68 611 233 749 b 658 619 529 749 606 689 l 658 733 l 826 733 l 826 -222 l 658 -222 m 449 131 b 661 365 561 131 661 225 l 661 368 b 449 603 661 510 561 603 b 238 368 333 603 238 514 l 238 365 b 449 131 238 224 335 131 "},"r":{"ha":574,"x_min":0,"x_max":0,"o":"m 106 733 l 274 733 l 274 568 b 533 747 319 678 404 753 l 533 569 l 524 569 b 274 279 376 569 274 474 l 274 0 l 106 0 "},"s":{"ha":696,"x_min":0,"x_max":0,"o":"m 357 -14 b 46 96 253 -14 138 24 l 121 210 b 361 119 201 150 286 119 b 475 199 433 119 475 150 l 475 201 b 311 304 475 258 397 278 b 82 519 203 335 82 379 l 82 522 b 343 746 82 661 197 746 b 613 663 435 746 535 714 l 546 543 b 339 613 475 586 400 613 b 236 540 274 613 236 582 l 236 538 b 401 433 236 483 315 461 b 629 219 508 400 629 351 l 629 217 b 357 -14 629 63 510 -14 "},"t":{"ha":571,"x_min":0,"x_max":0,"o":"m 351 -12 b 140 203 228 -12 140 42 l 140 589 l 47 589 l 47 733 l 140 733 l 140 935 l 308 935 l 308 733 l 506 733 l 506 589 l 308 589 l 308 229 b 399 138 308 164 342 138 b 503 163 436 138 469 146 l 503 25 b 351 -12 461 1 415 -12 "},"u":{"ha":861,"x_min":0,"x_max":0,"o":"m 358 -15 b 97 267 193 -15 97 96 l 97 733 l 265 733 l 265 317 b 422 139 265 203 322 139 b 588 319 519 139 588 206 l 588 733 l 757 733 l 757 0 l 588 0 l 588 114 b 358 -15 540 44 472 -15 "},"v":{"ha":826,"x_min":0,"x_max":0,"o":"m 36 733 l 217 733 l 414 194 l 613 733 l 789 733 l 489 -6 l 338 -6 "},"w":{"ha":1196,"x_min":0,"x_max":0,"o":"m 44 733 l 217 733 l 364 231 l 526 736 l 671 736 l 833 231 l 983 733 l 1153 733 l 913 -6 l 761 -6 l 597 496 l 432 -6 l 282 -6 "},"x":{"ha":806,"x_min":0,"x_max":0,"o":"m 404 488 l 574 733 l 753 733 l 494 375 l 764 0 l 581 0 l 400 261 l 221 0 l 42 0 l 310 374 l 51 733 l 235 733 "},"y":{"ha":828,"x_min":0,"x_max":0,"o":"m 614 733 l 789 733 l 497 -21 b 256 -226 439 -171 374 -226 b 82 -182 186 -226 133 -210 l 139 -57 b 238 -85 169 -74 203 -85 b 342 -1 285 -85 314 -64 l 36 733 l 217 733 l 424 189 "},"z":{"ha":778,"x_min":0,"x_max":0,"o":"m 72 115 l 496 596 l 88 596 l 88 733 l 710 733 l 710 618 l 286 138 l 710 138 l 710 0 l 72 0 "},"Á":{"ha":1097,"x_min":0,"x_max":0,"o":"m 469 979 l 628 979 l 1056 0 l 875 0 l 776 235 l 317 235 l 217 0 l 42 0 m 714 386 l 546 775 l 379 386 m 635 1268 l 788 1201 l 610 1067 l 479 1067 "},"á":{"ha":815,"x_min":0,"x_max":0,"o":"m 317 -15 b 57 211 179 -15 57 64 l 57 214 b 360 450 57 372 181 450 b 557 419 442 450 500 438 l 557 438 b 375 597 557 542 493 597 b 165 551 293 597 232 579 l 121 683 b 397 743 201 719 281 743 b 640 661 507 743 589 714 b 719 435 694 608 719 531 l 719 0 l 556 0 l 556 92 b 317 -15 506 32 429 -15 m 364 107 b 560 264 475 107 560 171 l 560 314 b 393 343 517 331 460 343 b 221 221 285 343 221 297 l 221 218 b 364 107 221 147 283 107 m 486 1054 l 639 986 l 468 826 l 342 826 "},"Ă":{"ha":1097,"x_min":0,"x_max":0,"o":"m 469 979 l 628 979 l 1056 0 l 875 0 l 776 235 l 317 235 l 217 0 l 42 0 m 714 386 l 546 775 l 379 386 m 549 1064 b 308 1250 415 1064 319 1131 l 428 1250 b 549 1181 444 1207 479 1181 b 669 1250 618 1181 653 1207 l 789 1250 b 549 1064 778 1131 682 1064 "},"ă":{"ha":815,"x_min":0,"x_max":0,"o":"m 317 -15 b 57 211 179 -15 57 64 l 57 214 b 360 450 57 372 181 450 b 557 419 442 450 500 438 l 557 438 b 375 597 557 542 493 597 b 165 551 293 597 232 579 l 121 683 b 397 743 201 719 281 743 b 640 661 507 743 589 714 b 719 435 694 608 719 531 l 719 0 l 556 0 l 556 92 b 317 -15 506 32 429 -15 m 364 107 b 560 264 475 107 560 171 l 560 314 b 393 343 517 331 460 343 b 221 221 285 343 221 297 l 221 218 b 364 107 221 147 283 107 m 408 824 b 171 1025 275 824 181 897 l 286 1025 b 408 940 303 975 338 940 b 531 1025 479 940 514 975 l 647 1025 b 408 824 636 897 542 824 "},"Â":{"ha":1097,"x_min":0,"x_max":0,"o":"m 469 979 l 628 979 l 1056 0 l 875 0 l 776 235 l 317 235 l 217 0 l 42 0 m 714 386 l 546 775 l 379 386 m 469 1249 l 628 1249 l 796 1061 l 654 1061 l 547 1142 l 440 1061 l 301 1061 "},"â":{"ha":815,"x_min":0,"x_max":0,"o":"m 317 -15 b 57 211 179 -15 57 64 l 57 214 b 360 450 57 372 181 450 b 557 419 442 450 500 438 l 557 438 b 375 597 557 542 493 597 b 165 551 293 597 232 579 l 121 683 b 397 743 201 719 281 743 b 640 661 507 743 589 714 b 719 435 694 608 719 531 l 719 0 l 556 0 l 556 92 b 317 -15 506 32 429 -15 m 364 107 b 560 264 475 107 560 171 l 560 314 b 393 343 517 331 460 343 b 221 221 285 343 221 297 l 221 218 b 364 107 221 147 283 107 m 331 1031 l 486 1031 l 649 826 l 515 826 l 407 919 l 300 826 l 169 826 "},"Ä":{"ha":1097,"x_min":0,"x_max":0,"o":"m 469 979 l 628 979 l 1056 0 l 875 0 l 776 235 l 317 235 l 217 0 l 42 0 m 714 386 l 546 775 l 379 386 m 606 1222 l 778 1222 l 778 1067 l 606 1067 m 319 1222 l 493 1222 l 493 1067 l 319 1067 "},"ä":{"ha":815,"x_min":0,"x_max":0,"o":"m 317 -15 b 57 211 179 -15 57 64 l 57 214 b 360 450 57 372 181 450 b 557 419 442 450 500 438 l 557 438 b 375 597 557 542 493 597 b 165 551 293 597 232 579 l 121 683 b 397 743 201 719 281 743 b 640 661 507 743 589 714 b 719 435 694 608 719 531 l 719 0 l 556 0 l 556 92 b 317 -15 506 32 429 -15 m 364 107 b 560 264 475 107 560 171 l 560 314 b 393 343 517 331 460 343 b 221 221 285 343 221 297 l 221 218 b 364 107 221 147 283 107 m 458 992 l 629 992 l 629 826 l 458 826 m 188 992 l 358 992 l 358 826 l 188 826 "},"Æ":{"ha":1451,"x_min":0,"x_max":0,"o":"m 560 972 l 1367 972 l 1367 819 l 847 819 l 847 567 l 1304 567 l 1304 414 l 847 414 l 847 153 l 1374 153 l 1374 0 l 676 0 l 676 235 l 324 235 l 193 0 l 17 0 m 676 386 l 676 824 l 649 824 l 404 386 "},"æ":{"ha":1322,"x_min":0,"x_max":0,"o":"m 333 -15 b 57 211 181 -15 57 67 l 57 214 b 357 450 57 372 181 450 b 551 419 438 450 494 438 l 551 438 b 372 597 551 542 489 597 b 165 551 290 597 232 579 l 121 683 b 394 743 201 719 278 743 b 653 624 522 743 608 701 b 910 749 711 700 801 749 b 1257 354 1139 749 1257 565 b 1256 307 1257 339 1257 324 l 717 307 b 926 121 735 188 819 121 b 1126 208 1010 121 1068 151 l 1225 121 b 924 -17 1154 38 1060 -17 b 640 108 810 -17 707 31 b 333 -15 558 40 457 -15 m 1092 418 b 906 611 1081 526 1017 611 b 714 418 803 611 729 532 m 361 108 b 579 203 442 108 515 143 b 551 315 565 238 556 274 b 390 343 508 331 453 343 b 221 221 283 343 221 297 l 221 218 b 361 108 221 150 283 108 "},"Ǽ":{"ha":1451,"x_min":0,"x_max":0,"o":"m 950 1254 l 1103 1188 l 925 1053 l 794 1053 m 560 972 l 1367 972 l 1367 819 l 847 819 l 847 567 l 1304 567 l 1304 414 l 847 414 l 847 153 l 1374 153 l 1374 0 l 676 0 l 676 235 l 324 235 l 193 0 l 17 0 m 676 386 l 676 824 l 649 824 l 404 386 "},"ǽ":{"ha":1322,"x_min":0,"x_max":0,"o":"m 733 1054 l 886 986 l 715 826 l 589 826 m 333 -15 b 57 211 181 -15 57 67 l 57 214 b 357 450 57 372 181 450 b 551 419 438 450 494 438 l 551 438 b 372 597 551 542 489 597 b 165 551 290 597 232 579 l 121 683 b 394 743 201 719 278 743 b 653 624 522 743 608 701 b 910 749 711 700 801 749 b 1257 354 1139 749 1257 565 b 1256 307 1257 339 1257 324 l 717 307 b 926 121 735 188 819 121 b 1126 208 1010 121 1068 151 l 1225 121 b 924 -17 1154 38 1060 -17 b 640 108 810 -17 707 31 b 333 -15 558 40 457 -15 m 1092 418 b 906 611 1081 526 1017 611 b 714 418 803 611 729 532 m 361 108 b 579 203 442 108 515 143 b 551 315 565 238 556 274 b 390 343 508 331 453 343 b 221 221 283 343 221 297 l 221 218 b 361 108 221 150 283 108 "},"À":{"ha":1097,"x_min":0,"x_max":0,"o":"m 469 979 l 628 979 l 1056 0 l 875 0 l 776 235 l 317 235 l 217 0 l 42 0 m 714 386 l 546 775 l 379 386 m 485 1067 l 308 1201 l 460 1268 l 617 1067 "},"à":{"ha":815,"x_min":0,"x_max":0,"o":"m 317 -15 b 57 211 179 -15 57 64 l 57 214 b 360 450 57 372 181 450 b 557 419 442 450 500 438 l 557 438 b 375 597 557 542 493 597 b 165 551 293 597 232 579 l 121 683 b 397 743 201 719 281 743 b 640 661 507 743 589 714 b 719 435 694 608 719 531 l 719 0 l 556 0 l 556 92 b 317 -15 506 32 429 -15 m 364 107 b 560 264 475 107 560 171 l 560 314 b 393 343 517 331 460 343 b 221 221 285 343 221 297 l 221 218 b 364 107 221 147 283 107 m 178 986 l 331 1054 l 475 826 l 349 826 "},"Ā":{"ha":1097,"x_min":0,"x_max":0,"o":"m 469 979 l 628 979 l 1056 0 l 875 0 l 776 235 l 317 235 l 217 0 l 42 0 m 714 386 l 546 775 l 379 386 m 300 1207 l 799 1207 l 799 1082 l 300 1082 "},"ā":{"ha":815,"x_min":0,"x_max":0,"o":"m 317 -15 b 57 211 179 -15 57 64 l 57 214 b 360 450 57 372 181 450 b 557 419 442 450 500 438 l 557 438 b 375 597 557 542 493 597 b 165 551 293 597 232 579 l 121 683 b 397 743 201 719 281 743 b 640 661 507 743 589 714 b 719 435 694 608 719 531 l 719 0 l 556 0 l 556 92 b 317 -15 506 32 429 -15 m 364 107 b 560 264 475 107 560 171 l 560 314 b 393 343 517 331 460 343 b 221 221 285 343 221 297 l 221 218 b 364 107 221 147 283 107 m 172 964 l 644 964 l 644 842 l 172 842 "},"Ą":{"ha":1097,"x_min":0,"x_max":0,"o":"m 1067 -228 b 1022 -231 1050 -229 1035 -231 b 839 -114 903 -229 839 -181 b 894 0 839 -72 860 -36 l 875 0 l 776 235 l 317 235 l 217 0 l 42 0 l 469 979 l 628 979 l 1056 0 l 1013 0 b 967 -87 979 -33 967 -61 b 1067 -147 967 -128 1000 -147 m 714 386 l 546 775 l 379 386 "},"ą":{"ha":815,"x_min":0,"x_max":0,"o":"m 729 -228 b 685 -231 713 -229 697 -231 b 501 -114 565 -229 501 -181 b 557 0 501 -72 522 -36 l 556 0 l 556 92 b 317 -15 506 32 429 -15 b 57 211 179 -15 57 64 l 57 214 b 360 450 57 372 181 450 b 557 419 442 450 500 438 l 557 438 b 375 597 557 542 493 597 b 165 551 293 597 232 579 l 121 683 b 397 743 201 719 281 743 b 640 661 507 743 589 714 b 719 435 694 608 719 531 l 719 0 l 675 0 b 629 -87 642 -33 629 -61 b 729 -147 629 -128 663 -147 m 364 107 b 560 264 475 107 560 171 l 560 314 b 393 343 517 331 460 343 b 221 221 285 343 221 297 l 221 218 b 364 107 221 147 283 107 "},"Å":{"ha":1097,"x_min":0,"x_max":0,"o":"m 443 921 b 383 1035 407 947 383 988 b 549 1182 383 1121 460 1182 b 714 1035 638 1182 714 1121 b 654 922 714 988 690 949 l 1056 0 l 875 0 l 776 235 l 317 235 l 217 0 l 42 0 m 714 386 l 546 775 l 379 386 m 549 954 b 639 1035 601 954 639 990 b 549 1115 639 1081 601 1115 b 460 1035 496 1115 460 1081 b 549 954 460 990 496 954 "},"å":{"ha":815,"x_min":0,"x_max":0,"o":"m 317 -15 b 57 211 179 -15 57 64 l 57 214 b 360 450 57 372 181 450 b 557 419 442 450 500 438 l 557 438 b 375 597 557 542 493 597 b 165 551 293 597 232 579 l 121 683 b 397 743 201 719 281 743 b 640 661 507 743 589 714 b 719 435 694 608 719 531 l 719 0 l 556 0 l 556 92 b 317 -15 506 32 429 -15 m 364 107 b 560 264 475 107 560 171 l 560 314 b 393 343 517 331 460 343 b 221 221 285 343 221 297 l 221 218 b 364 107 221 147 283 107 m 408 824 b 247 979 319 824 247 893 b 408 1135 247 1065 319 1135 b 569 979 497 1135 569 1065 b 408 824 569 893 497 824 m 408 886 b 501 979 460 886 501 928 b 408 1072 501 1031 460 1072 b 315 979 357 1072 315 1031 b 408 886 315 928 357 886 "},"Ǻ":{"ha":1097,"x_min":0,"x_max":0,"o":"m 443 921 b 383 1035 407 947 383 988 b 549 1182 383 1121 460 1182 b 714 1035 638 1182 714 1121 b 654 922 714 988 690 949 l 1056 0 l 875 0 l 776 235 l 317 235 l 217 0 l 42 0 m 714 386 l 546 775 l 379 386 m 635 1400 l 786 1332 l 604 1221 l 472 1221 m 549 954 b 639 1035 601 954 639 990 b 549 1115 639 1081 601 1115 b 460 1035 496 1115 460 1081 b 549 954 460 990 496 954 "},"ǻ":{"ha":815,"x_min":0,"x_max":0,"o":"m 493 1371 l 643 1303 l 468 1179 l 340 1179 m 317 -15 b 57 211 179 -15 57 64 l 57 214 b 360 450 57 372 181 450 b 557 419 442 450 500 438 l 557 438 b 375 597 557 542 493 597 b 165 551 293 597 232 579 l 121 683 b 397 743 201 719 281 743 b 640 661 507 743 589 714 b 719 435 694 608 719 531 l 719 0 l 556 0 l 556 92 b 317 -15 506 32 429 -15 m 364 107 b 560 264 475 107 560 171 l 560 314 b 393 343 517 331 460 343 b 221 221 285 343 221 297 l 221 218 b 364 107 221 147 283 107 m 408 824 b 247 979 319 824 247 893 b 408 1135 247 1065 319 1135 b 569 979 497 1135 569 1065 b 408 824 569 893 497 824 m 408 886 b 501 979 460 886 501 928 b 408 1072 501 1031 460 1072 b 315 979 357 1072 315 1031 b 408 886 315 928 357 886 "},"Ã":{"ha":1097,"x_min":0,"x_max":0,"o":"m 469 979 l 628 979 l 1056 0 l 875 0 l 776 235 l 317 235 l 217 0 l 42 0 m 714 386 l 546 775 l 379 386 m 664 1067 b 540 1097 622 1067 579 1082 b 460 1121 510 1110 482 1121 b 382 1053 419 1121 403 1099 l 289 1082 b 444 1253 318 1190 360 1253 b 568 1221 486 1253 529 1236 b 649 1199 599 1210 626 1199 b 725 1265 689 1199 706 1221 l 819 1238 b 664 1067 789 1129 747 1067 "},"ã":{"ha":815,"x_min":0,"x_max":0,"o":"m 317 -15 b 57 211 179 -15 57 64 l 57 214 b 360 450 57 372 181 450 b 557 419 442 450 500 438 l 557 438 b 375 597 557 542 493 597 b 165 551 293 597 232 579 l 121 683 b 397 743 201 719 281 743 b 640 661 507 743 589 714 b 719 435 694 608 719 531 l 719 0 l 556 0 l 556 92 b 317 -15 506 32 429 -15 m 364 107 b 560 264 475 107 560 171 l 560 314 b 393 343 517 331 460 343 b 221 221 285 343 221 297 l 221 218 b 364 107 221 147 283 107 m 522 826 b 406 856 481 826 440 842 b 322 882 375 869 346 882 b 246 813 282 882 267 860 l 153 842 b 308 1014 183 953 224 1014 b 425 985 350 1014 390 999 b 508 958 456 971 486 958 b 585 1028 549 958 564 981 l 678 1000 b 522 826 647 888 607 826 "},"Ć":{"ha":1025,"x_min":0,"x_max":0,"o":"m 576 -17 b 82 483 293 -17 82 204 l 82 486 b 583 989 82 763 289 989 b 964 838 763 989 871 926 l 854 711 b 582 832 776 783 693 832 b 261 489 397 832 261 679 l 261 486 b 582 142 261 296 396 142 b 861 267 701 142 778 189 l 971 156 b 576 -17 869 50 758 -17 m 654 1268 l 807 1201 l 629 1067 l 499 1067 "},"ć":{"ha":793,"x_min":0,"x_max":0,"o":"m 515 1054 l 668 986 l 497 826 l 371 826 m 444 -17 b 65 363 226 -17 65 154 l 65 365 b 447 749 65 574 226 749 b 740 622 585 749 671 697 l 635 510 b 446 601 583 564 529 601 b 233 368 324 601 233 496 l 233 365 b 453 131 233 235 324 131 b 643 221 532 131 590 167 l 744 121 b 444 -17 672 40 588 -17 "},"Č":{"ha":1025,"x_min":0,"x_max":0,"o":"m 576 -17 b 82 483 293 -17 82 204 l 82 486 b 583 989 82 763 289 989 b 964 838 763 989 871 926 l 854 711 b 582 832 776 783 693 832 b 261 489 397 832 261 679 l 261 486 b 582 142 261 296 396 142 b 861 267 701 142 778 189 l 971 156 b 576 -17 869 50 758 -17 m 646 1067 l 488 1067 l 319 1254 l 461 1254 l 568 1175 l 675 1254 l 814 1254 "},"č":{"ha":793,"x_min":0,"x_max":0,"o":"m 515 826 l 360 826 l 199 1031 l 332 1031 l 439 938 l 547 1031 l 678 1031 m 444 -17 b 65 363 226 -17 65 154 l 65 365 b 447 749 65 574 226 749 b 740 622 585 749 671 697 l 635 510 b 446 601 583 564 529 601 b 233 368 324 601 233 496 l 233 365 b 453 131 233 235 324 131 b 643 221 532 131 590 167 l 744 121 b 444 -17 672 40 588 -17 "},"Ç":{"ha":1025,"x_min":0,"x_max":0,"o":"m 368 -168 l 476 -7 b 82 483 244 36 82 238 l 82 486 b 583 989 82 763 289 989 b 964 838 763 989 871 926 l 854 711 b 582 832 776 783 693 832 b 261 489 397 832 261 679 l 261 486 b 582 142 261 296 396 142 b 861 267 701 142 778 189 l 971 156 b 607 -15 875 56 771 -8 l 515 -231 "},"ç":{"ha":793,"x_min":0,"x_max":0,"o":"m 236 -168 l 347 -4 b 65 363 179 38 65 186 l 65 365 b 447 749 65 574 226 749 b 740 622 585 749 671 697 l 635 510 b 446 601 583 564 529 601 b 233 368 324 601 233 496 l 233 365 b 453 131 233 235 324 131 b 643 221 532 131 590 167 l 744 121 b 475 -15 678 46 600 -8 l 383 -231 "},"Ċ":{"ha":1025,"x_min":0,"x_max":0,"o":"m 478 1222 l 656 1222 l 656 1067 l 478 1067 m 576 -17 b 82 483 293 -17 82 204 l 82 486 b 583 989 82 763 289 989 b 964 838 763 989 871 926 l 854 711 b 582 832 776 783 693 832 b 261 489 397 832 261 679 l 261 486 b 582 142 261 296 396 142 b 861 267 701 142 778 189 l 971 156 b 576 -17 869 50 758 -17 "},"ċ":{"ha":793,"x_min":0,"x_max":0,"o":"m 444 -17 b 65 363 226 -17 65 154 l 65 365 b 447 749 65 574 226 749 b 740 622 585 749 671 697 l 635 510 b 446 601 583 564 529 601 b 233 368 324 601 233 496 l 233 365 b 453 131 233 235 324 131 b 643 221 532 131 590 167 l 744 121 b 444 -17 672 40 588 -17 m 350 992 l 525 992 l 525 826 l 350 826 "},"Ď":{"ha":1086,"x_min":0,"x_max":0,"o":"m 125 972 l 488 972 b 1004 489 793 972 1004 763 l 1004 486 b 488 0 1004 213 793 0 l 125 0 m 296 817 l 296 156 l 488 156 b 825 483 692 156 825 293 l 825 486 b 488 817 825 676 692 817 m 603 1053 l 444 1053 l 276 1240 l 418 1240 l 525 1161 l 632 1240 l 771 1240 "},"ď":{"ha":932,"x_min":0,"x_max":0,"o":"m 921 1082 l 1051 1082 l 1051 1078 l 974 818 l 904 818 m 408 -15 b 68 365 236 -15 68 122 l 68 368 b 408 749 68 611 233 749 b 658 619 529 749 606 689 l 658 1014 l 826 1014 l 826 0 l 658 0 l 658 122 b 408 -15 604 46 528 -15 m 449 131 b 661 365 561 131 661 225 l 661 368 b 449 603 661 510 561 603 b 238 368 333 603 238 514 l 238 365 b 449 131 238 224 335 131 "},"Đ":{"ha":1128,"x_min":0,"x_max":0,"o":"m 167 413 l 63 413 l 63 565 l 167 565 l 167 972 l 529 972 b 1046 489 835 972 1046 763 l 1046 486 b 529 0 1046 213 835 0 l 167 0 m 338 413 l 338 156 l 529 156 b 867 483 733 156 867 293 l 867 486 b 529 817 867 676 733 817 l 338 817 l 338 565 l 581 565 l 581 413 "},"đ":{"ha":932,"x_min":0,"x_max":0,"o":"m 431 936 l 658 936 l 658 1014 l 826 1014 l 826 936 l 922 936 l 922 835 l 826 835 l 826 0 l 658 0 l 658 122 b 408 -15 604 46 528 -15 b 68 365 236 -15 68 122 l 68 368 b 408 749 68 611 233 749 b 658 619 529 749 606 689 l 658 835 l 431 835 m 449 131 b 661 365 561 131 661 225 l 661 368 b 449 603 661 510 561 603 b 238 368 333 603 238 514 l 238 365 b 449 131 238 224 335 131 "},"É":{"ha":931,"x_min":0,"x_max":0,"o":"m 575 1254 l 728 1188 l 550 1053 l 419 1053 m 125 972 l 846 972 l 846 819 l 296 819 l 296 567 l 783 567 l 783 414 l 296 414 l 296 153 l 853 153 l 853 0 l 125 0 "},"é":{"ha":839,"x_min":0,"x_max":0,"o":"m 499 1054 l 651 986 l 481 826 l 354 826 m 442 -17 b 65 364 229 -17 65 138 l 65 367 b 424 749 65 576 214 749 b 775 354 657 749 775 565 b 772 307 775 339 774 324 l 233 307 b 444 121 251 188 336 121 b 643 208 526 121 585 151 l 742 121 b 442 -17 672 38 576 -17 m 608 418 b 422 611 597 526 533 611 b 232 418 319 611 247 532 "},"Ĕ":{"ha":931,"x_min":0,"x_max":0,"o":"m 488 1050 b 247 1236 354 1050 258 1117 l 367 1236 b 488 1167 383 1193 418 1167 b 608 1236 557 1167 592 1193 l 728 1236 b 488 1050 717 1117 621 1050 m 125 972 l 846 972 l 846 819 l 296 819 l 296 567 l 783 567 l 783 414 l 296 414 l 296 153 l 853 153 l 853 0 l 125 0 "},"ĕ":{"ha":839,"x_min":0,"x_max":0,"o":"m 442 -17 b 65 364 229 -17 65 138 l 65 367 b 424 749 65 576 214 749 b 775 354 657 749 775 565 b 772 307 775 339 774 324 l 233 307 b 444 121 251 188 336 121 b 643 208 526 121 585 151 l 742 121 b 442 -17 672 38 576 -17 m 608 418 b 422 611 597 526 533 611 b 232 418 319 611 247 532 m 421 824 b 183 1025 288 824 193 897 l 299 1025 b 421 940 315 975 350 940 b 543 1025 492 940 526 975 l 660 1025 b 421 824 649 897 554 824 "},"Ě":{"ha":931,"x_min":0,"x_max":0,"o":"m 567 1053 l 408 1053 l 240 1240 l 382 1240 l 489 1161 l 596 1240 l 735 1240 m 125 972 l 846 972 l 846 819 l 296 819 l 296 567 l 783 567 l 783 414 l 296 414 l 296 153 l 853 153 l 853 0 l 125 0 "},"ě":{"ha":839,"x_min":0,"x_max":0,"o":"m 499 826 l 343 826 l 182 1031 l 315 1031 l 422 938 l 531 1031 l 661 1031 m 442 -17 b 65 364 229 -17 65 138 l 65 367 b 424 749 65 576 214 749 b 775 354 657 749 775 565 b 772 307 775 339 774 324 l 233 307 b 444 121 251 188 336 121 b 643 208 526 121 585 151 l 742 121 b 442 -17 672 38 576 -17 m 608 418 b 422 611 597 526 533 611 b 232 418 319 611 247 532 "},"Ê":{"ha":931,"x_min":0,"x_max":0,"o":"m 125 972 l 846 972 l 846 819 l 296 819 l 296 567 l 783 567 l 783 414 l 296 414 l 296 153 l 853 153 l 853 0 l 125 0 m 408 1240 l 567 1240 l 735 1053 l 593 1053 l 486 1133 l 379 1053 l 240 1053 "},"ê":{"ha":839,"x_min":0,"x_max":0,"o":"m 343 1031 l 499 1031 l 661 826 l 528 826 l 419 919 l 313 826 l 182 826 m 442 -17 b 65 364 229 -17 65 138 l 65 367 b 424 749 65 576 214 749 b 775 354 657 749 775 565 b 772 307 775 339 774 324 l 233 307 b 444 121 251 188 336 121 b 643 208 526 121 585 151 l 742 121 b 442 -17 672 38 576 -17 m 608 418 b 422 611 597 526 533 611 b 232 418 319 611 247 532 "},"Ë":{"ha":931,"x_min":0,"x_max":0,"o":"m 544 1208 l 717 1208 l 717 1053 l 544 1053 m 258 1208 l 432 1208 l 432 1053 l 258 1053 m 125 972 l 846 972 l 846 819 l 296 819 l 296 567 l 783 567 l 783 414 l 296 414 l 296 153 l 853 153 l 853 0 l 125 0 "},"ë":{"ha":839,"x_min":0,"x_max":0,"o":"m 471 992 l 642 992 l 642 826 l 471 826 m 200 992 l 371 992 l 371 826 l 200 826 m 442 -17 b 65 364 229 -17 65 138 l 65 367 b 424 749 65 576 214 749 b 775 354 657 749 775 565 b 772 307 775 339 774 324 l 233 307 b 444 121 251 188 336 121 b 643 208 526 121 585 151 l 742 121 b 442 -17 672 38 576 -17 m 608 418 b 422 611 597 526 533 611 b 232 418 319 611 247 532 "},"Ė":{"ha":931,"x_min":0,"x_max":0,"o":"m 399 1208 l 576 1208 l 576 1053 l 399 1053 m 125 972 l 846 972 l 846 819 l 296 819 l 296 567 l 783 567 l 783 414 l 296 414 l 296 153 l 853 153 l 853 0 l 125 0 "},"ė":{"ha":839,"x_min":0,"x_max":0,"o":"m 442 -17 b 65 364 229 -17 65 138 l 65 367 b 424 749 65 576 214 749 b 775 354 657 749 775 565 b 772 307 775 339 774 324 l 233 307 b 444 121 251 188 336 121 b 643 208 526 121 585 151 l 742 121 b 442 -17 672 38 576 -17 m 608 418 b 422 611 597 526 533 611 b 232 418 319 611 247 532 m 333 992 l 508 992 l 508 826 l 333 826 "},"È":{"ha":931,"x_min":0,"x_max":0,"o":"m 425 1053 l 249 1188 l 400 1254 l 557 1053 m 125 972 l 846 972 l 846 819 l 296 819 l 296 567 l 783 567 l 783 414 l 296 414 l 296 153 l 853 153 l 853 0 l 125 0 "},"è":{"ha":839,"x_min":0,"x_max":0,"o":"m 442 -17 b 65 364 229 -17 65 138 l 65 367 b 424 749 65 576 214 749 b 775 354 657 749 775 565 b 772 307 775 339 774 324 l 233 307 b 444 121 251 188 336 121 b 643 208 526 121 585 151 l 742 121 b 442 -17 672 38 576 -17 m 608 418 b 422 611 597 526 533 611 b 232 418 319 611 247 532 m 190 986 l 343 1054 l 488 826 l 361 826 "},"Ē":{"ha":931,"x_min":0,"x_max":0,"o":"m 239 1193 l 738 1193 l 738 1068 l 239 1068 m 125 972 l 846 972 l 846 819 l 296 819 l 296 567 l 783 567 l 783 414 l 296 414 l 296 153 l 853 153 l 853 0 l 125 0 "},"ē":{"ha":839,"x_min":0,"x_max":0,"o":"m 442 -17 b 65 364 229 -17 65 138 l 65 367 b 424 749 65 576 214 749 b 775 354 657 749 775 565 b 772 307 775 339 774 324 l 233 307 b 444 121 251 188 336 121 b 643 208 526 121 585 151 l 742 121 b 442 -17 672 38 576 -17 m 608 418 b 422 611 597 526 533 611 b 232 418 319 611 247 532 m 185 964 l 657 964 l 657 842 l 185 842 "},"Ę":{"ha":931,"x_min":0,"x_max":0,"o":"m 125 972 l 846 972 l 846 819 l 296 819 l 296 567 l 783 567 l 783 414 l 296 414 l 296 153 l 853 153 l 853 0 l 799 0 b 753 -87 765 -33 753 -61 b 853 -147 753 -128 786 -147 l 853 -228 b 808 -231 836 -229 821 -231 b 625 -114 689 -229 625 -181 b 681 0 625 -72 646 -36 l 125 0 "},"ę":{"ha":839,"x_min":0,"x_max":0,"o":"m 608 418 b 422 611 597 526 533 611 b 232 418 319 611 247 532 m 742 121 b 661 40 714 89 693 68 b 585 -81 606 -10 585 -47 b 685 -147 585 -128 618 -147 l 685 -228 b 640 -231 669 -229 654 -231 b 458 -117 521 -229 458 -182 b 506 -11 458 -81 475 -47 b 442 -17 488 -14 463 -17 b 65 364 229 -17 65 138 l 65 367 b 424 749 65 576 214 749 b 775 354 657 749 775 565 b 772 307 775 339 774 324 l 233 307 b 444 121 251 188 336 121 b 643 208 526 121 585 151 "},"Ð":{"ha":1128,"x_min":0,"x_max":0,"o":"m 167 413 l 63 413 l 63 565 l 167 565 l 167 972 l 529 972 b 1046 489 835 972 1046 763 l 1046 486 b 529 0 1046 213 835 0 l 167 0 m 338 413 l 338 156 l 529 156 b 867 483 733 156 867 293 l 867 486 b 529 817 867 676 733 817 l 338 817 l 338 565 l 581 565 l 581 413 "},"ð":{"ha":913,"x_min":0,"x_max":0,"o":"m 613 890 b 846 401 746 756 846 592 l 846 399 b 453 -17 846 168 696 -17 b 65 372 232 -17 65 153 l 65 375 b 399 732 65 579 217 732 b 601 663 486 732 544 703 b 454 842 568 719 517 782 l 286 790 l 253 883 l 369 919 b 247 1014 329 953 289 985 l 475 1014 l 529 968 l 688 1017 l 721 925 m 457 131 b 679 361 592 131 679 233 l 679 364 b 451 594 679 492 586 594 b 233 365 317 594 233 493 l 233 363 b 457 131 233 236 326 131 "},"Ğ":{"ha":1089,"x_min":0,"x_max":0,"o":"m 572 1064 b 332 1250 439 1064 343 1131 l 451 1250 b 572 1181 468 1207 503 1181 b 693 1250 642 1181 676 1207 l 813 1250 b 572 1064 801 1131 706 1064 m 586 -17 b 82 483 282 -17 82 200 l 82 486 b 583 989 82 758 290 989 b 957 857 753 989 857 942 l 849 728 b 576 832 774 792 700 832 b 261 489 397 832 261 675 l 261 486 b 592 139 261 286 393 139 b 826 213 683 139 767 168 l 826 394 l 578 394 l 578 543 l 992 543 l 992 135 b 586 -17 896 53 758 -17 "},"ğ":{"ha":932,"x_min":0,"x_max":0,"o":"m 432 -225 b 104 -137 311 -225 199 -194 l 167 -11 b 428 -89 246 -60 328 -89 b 660 136 578 -89 660 -11 l 660 193 b 401 58 599 114 522 58 b 68 401 229 58 68 186 l 68 404 b 401 749 68 621 231 749 b 658 624 525 749 601 692 l 658 733 l 826 733 l 826 150 b 733 -126 826 26 794 -65 b 432 -225 667 -193 564 -225 m 446 201 b 661 403 563 201 661 283 l 661 406 b 446 607 661 525 563 607 b 238 406 329 607 238 526 l 238 403 b 446 201 238 283 331 201 m 474 824 b 236 1025 340 824 246 897 l 351 1025 b 474 940 368 975 403 940 b 596 1025 544 940 579 975 l 713 1025 b 474 824 701 897 607 824 "},"Ģ":{"ha":1089,"x_min":0,"x_max":0,"o":"m 467 -328 b 564 -233 536 -318 568 -287 l 489 -233 l 489 -93 l 653 -93 l 653 -212 b 478 -382 653 -326 592 -376 m 586 -17 b 82 483 282 -17 82 200 l 82 486 b 583 989 82 758 290 989 b 957 857 753 989 857 942 l 849 728 b 576 832 774 792 700 832 b 261 489 397 832 261 675 l 261 486 b 592 139 261 286 393 139 b 826 213 683 139 767 168 l 826 394 l 578 394 l 578 543 l 992 543 l 992 135 b 586 -17 896 53 758 -17 "},"ģ":{"ha":932,"x_min":0,"x_max":0,"o":"m 575 1061 b 478 967 506 1051 474 1021 l 553 967 l 553 826 l 389 826 l 389 946 b 564 1115 389 1060 450 1110 m 432 -225 b 104 -137 311 -225 199 -194 l 167 -11 b 428 -89 246 -60 328 -89 b 660 136 578 -89 660 -11 l 660 193 b 401 58 599 114 522 58 b 68 401 229 58 68 186 l 68 404 b 401 749 68 621 231 749 b 658 624 525 749 601 692 l 658 733 l 826 733 l 826 150 b 733 -126 826 26 794 -65 b 432 -225 667 -193 564 -225 m 446 201 b 661 403 563 201 661 283 l 661 406 b 446 607 661 525 563 607 b 238 406 329 607 238 526 l 238 403 b 446 201 238 283 331 201 "},"Ġ":{"ha":1089,"x_min":0,"x_max":0,"o":"m 483 1222 l 661 1222 l 661 1067 l 483 1067 m 586 -17 b 82 483 282 -17 82 200 l 82 486 b 583 989 82 758 290 989 b 957 857 753 989 857 942 l 849 728 b 576 832 774 792 700 832 b 261 489 397 832 261 675 l 261 486 b 592 139 261 286 393 139 b 826 213 683 139 767 168 l 826 394 l 578 394 l 578 543 l 992 543 l 992 135 b 586 -17 896 53 758 -17 "},"ġ":{"ha":932,"x_min":0,"x_max":0,"o":"m 432 -225 b 104 -137 311 -225 199 -194 l 167 -11 b 428 -89 246 -60 328 -89 b 660 136 578 -89 660 -11 l 660 193 b 401 58 599 114 522 58 b 68 401 229 58 68 186 l 68 404 b 401 749 68 621 231 749 b 658 624 525 749 601 692 l 658 733 l 826 733 l 826 150 b 733 -126 826 26 794 -65 b 432 -225 667 -193 564 -225 m 446 201 b 661 403 563 201 661 283 l 661 406 b 446 607 661 525 563 607 b 238 406 329 607 238 526 l 238 403 b 446 201 238 283 331 201 m 386 992 l 561 992 l 561 826 l 386 826 "},"Ħ":{"ha":1081,"x_min":0,"x_max":0,"o":"m 39 831 l 138 831 l 138 972 l 308 972 l 308 831 l 772 831 l 772 972 l 943 972 l 943 831 l 1043 831 l 1043 710 l 943 710 l 943 0 l 772 0 l 772 408 l 308 408 l 308 0 l 138 0 l 138 710 l 39 710 m 772 565 l 772 713 l 308 713 l 308 565 "},"ħ":{"ha":861,"x_min":0,"x_max":0,"o":"m 274 835 l 274 621 b 503 749 321 689 389 749 b 764 468 668 749 764 638 l 764 0 l 596 0 l 596 417 b 439 596 596 531 539 596 b 274 414 342 596 274 528 l 274 0 l 106 0 l 106 835 l 10 835 l 10 936 l 106 936 l 106 1014 l 274 1014 l 274 936 l 501 936 l 501 835 "},"Í":{"ha":440,"x_min":0,"x_max":0,"o":"m 135 972 l 306 972 l 306 0 l 135 0 m 308 1254 l 461 1188 l 283 1053 l 153 1053 "},"í":{"ha":397,"x_min":0,"x_max":0,"o":"m 276 1054 l 429 986 l 258 826 l 132 826 m 115 733 l 283 733 l 283 0 l 115 0 "},"Ĭ":{"ha":440,"x_min":0,"x_max":0,"o":"m 135 972 l 306 972 l 306 0 l 135 0 m 221 1050 b -19 1236 88 1050 -8 1117 l 100 1236 b 221 1167 117 1193 151 1167 b 342 1236 290 1167 325 1193 l 461 1236 b 221 1050 450 1117 354 1050 "},"ĭ":{"ha":397,"x_min":0,"x_max":0,"o":"m 115 733 l 283 733 l 283 0 l 115 0 m 199 824 b -39 1025 65 824 -29 897 l 76 1025 b 199 940 93 975 128 940 b 321 1025 269 940 304 975 l 438 1025 b 199 824 426 897 332 824 "},"Î":{"ha":440,"x_min":0,"x_max":0,"o":"m 135 972 l 306 972 l 306 0 l 135 0 m 142 1240 l 300 1240 l 468 1053 l 326 1053 l 219 1133 l 113 1053 l -26 1053 "},"î":{"ha":397,"x_min":0,"x_max":0,"o":"m 121 1031 l 276 1031 l 439 826 l 306 826 l 197 919 l 90 826 l -40 826 m 115 733 l 283 733 l 283 0 l 115 0 "},"Ï":{"ha":440,"x_min":0,"x_max":0,"o":"m 135 972 l 306 972 l 306 0 l 135 0 m 278 1208 l 450 1208 l 450 1053 l 278 1053 m -8 1208 l 165 1208 l 165 1053 l -8 1053 "},"ï":{"ha":397,"x_min":0,"x_max":0,"o":"m 249 992 l 419 992 l 419 826 l 249 826 m -22 992 l 149 992 l 149 826 l -22 826 m 115 733 l 283 733 l 283 0 l 115 0 "},"İ":{"ha":440,"x_min":0,"x_max":0,"o":"m 135 972 l 306 972 l 306 0 l 135 0 m 132 1208 l 310 1208 l 310 1053 l 132 1053 "},"ı":{"ha":397,"x_min":0,"x_max":0,"o":"m 115 733 l 283 733 l 283 0 l 115 0 "},"Ì":{"ha":440,"x_min":0,"x_max":0,"o":"m 135 972 l 306 972 l 306 0 l 135 0 m 158 1053 l -18 1188 l 133 1254 l 290 1053 "},"ì":{"ha":397,"x_min":0,"x_max":0,"o":"m 115 733 l 283 733 l 283 0 l 115 0 m -32 986 l 121 1054 l 265 826 l 139 826 "},"Ī":{"ha":440,"x_min":0,"x_max":0,"o":"m 135 972 l 306 972 l 306 0 l 135 0 m -28 1193 l 471 1193 l 471 1068 l -28 1068 "},"ī":{"ha":397,"x_min":0,"x_max":0,"o":"m 115 733 l 283 733 l 283 0 l 115 0 m -37 964 l 435 964 l 435 842 l -37 842 "},"Į":{"ha":440,"x_min":0,"x_max":0,"o":"m 135 972 l 306 972 l 306 0 l 275 0 b 229 -87 242 -33 229 -61 b 329 -147 229 -128 263 -147 l 329 -228 b 285 -231 313 -229 297 -231 b 101 -114 165 -229 101 -181 b 157 0 101 -72 122 -36 l 135 0 "},"į":{"ha":397,"x_min":0,"x_max":0,"o":"m 115 733 l 283 733 l 283 0 l 254 0 b 208 -87 221 -33 208 -61 b 308 -147 208 -128 242 -147 l 308 -228 b 264 -231 292 -229 276 -231 b 81 -114 144 -229 81 -181 b 136 0 81 -72 101 -36 l 115 0 m 108 1006 l 289 1006 l 289 846 l 108 846 "},"Ķ":{"ha":1008,"x_min":0,"x_max":0,"o":"m 401 -317 b 499 -222 471 -307 503 -276 l 424 -222 l 424 -82 l 588 -82 l 588 -201 b 413 -371 588 -315 526 -365 m 125 972 l 296 972 l 296 483 l 758 972 l 969 972 l 564 554 l 988 0 l 779 0 l 447 438 l 296 282 l 296 0 l 125 0 "},"ķ":{"ha":808,"x_min":0,"x_max":0,"o":"m 317 -324 b 414 -229 386 -314 418 -283 l 339 -229 l 339 -89 l 503 -89 l 503 -208 b 328 -378 503 -322 442 -372 m 106 1014 l 274 1014 l 274 408 l 578 733 l 782 733 l 490 435 l 792 0 l 594 0 l 378 318 l 274 210 l 274 0 l 106 0 "},"Ĺ":{"ha":860,"x_min":0,"x_max":0,"o":"m 321 1254 l 474 1188 l 296 1053 l 165 1053 m 125 972 l 296 972 l 296 156 l 807 156 l 807 0 l 125 0 "},"ĺ":{"ha":397,"x_min":0,"x_max":0,"o":"m 290 1278 l 443 1211 l 265 1076 l 135 1076 m 115 1014 l 283 1014 l 283 0 l 115 0 "},"Ľ":{"ha":860,"x_min":0,"x_max":0,"o":"m 422 972 l 553 972 l 553 968 l 475 708 l 406 708 m 125 972 l 296 972 l 296 156 l 807 156 l 807 0 l 125 0 "},"ľ":{"ha":397,"x_min":0,"x_max":0,"o":"m 378 1082 l 508 1082 l 508 1078 l 431 818 l 361 818 m 115 1014 l 283 1014 l 283 0 l 115 0 "},"Ļ":{"ha":860,"x_min":0,"x_max":0,"o":"m 358 -324 b 456 -229 428 -314 460 -283 l 381 -229 l 381 -89 l 544 -89 l 544 -208 b 369 -378 544 -322 483 -372 m 125 972 l 296 972 l 296 156 l 807 156 l 807 0 l 125 0 "},"ļ":{"ha":397,"x_min":0,"x_max":0,"o":"m 94 -324 b 192 -229 164 -314 196 -283 l 117 -229 l 117 -89 l 281 -89 l 281 -208 b 106 -378 281 -322 219 -372 m 115 1014 l 283 1014 l 283 0 l 115 0 "},"Ŀ":{"ha":860,"x_min":0,"x_max":0,"o":"m 575 606 l 744 606 l 744 440 l 575 440 m 125 972 l 296 972 l 296 156 l 807 156 l 807 0 l 125 0 "},"ŀ":{"ha":510,"x_min":0,"x_max":0,"o":"m 381 599 l 528 599 l 528 443 l 381 443 m 115 1014 l 283 1014 l 283 0 l 115 0 "},"Ł":{"ha":901,"x_min":0,"x_max":0,"o":"m 336 435 l 336 156 l 849 156 l 849 0 l 167 0 l 167 358 l 63 313 l 63 475 l 167 521 l 167 972 l 336 972 l 336 597 l 560 699 l 560 536 "},"ł":{"ha":481,"x_min":0,"x_max":0,"o":"m 324 478 l 324 0 l 157 0 l 157 393 l 51 339 l 51 500 l 157 554 l 157 1014 l 324 1014 l 324 639 l 429 693 l 429 532 "},"Ń":{"ha":1097,"x_min":0,"x_max":0,"o":"m 635 1253 l 788 1186 l 610 1051 l 479 1051 m 125 972 l 283 972 l 804 300 l 804 972 l 972 972 l 972 0 l 829 0 l 293 692 l 293 0 l 125 0 "},"ń":{"ha":861,"x_min":0,"x_max":0,"o":"m 511 1054 l 664 986 l 493 826 l 367 826 m 106 733 l 274 733 l 274 621 b 503 749 321 689 389 749 b 764 468 668 749 764 638 l 764 0 l 596 0 l 596 417 b 439 596 596 531 539 596 b 274 414 342 596 274 528 l 274 0 l 106 0 "},"Ň":{"ha":1097,"x_min":0,"x_max":0,"o":"m 628 1051 l 469 1051 l 301 1239 l 443 1239 l 550 1160 l 657 1239 l 796 1239 m 125 972 l 283 972 l 804 300 l 804 972 l 972 972 l 972 0 l 829 0 l 293 692 l 293 0 l 125 0 "},"ň":{"ha":861,"x_min":0,"x_max":0,"o":"m 511 826 l 356 826 l 194 1031 l 328 1031 l 435 938 l 543 1031 l 674 1031 m 106 733 l 274 733 l 274 621 b 503 749 321 689 389 749 b 764 468 668 749 764 638 l 764 0 l 596 0 l 596 417 b 439 596 596 531 539 596 b 274 414 342 596 274 528 l 274 0 l 106 0 "},"Ņ":{"ha":1097,"x_min":0,"x_max":0,"o":"m 443 -317 b 540 -222 513 -307 544 -276 l 465 -222 l 465 -82 l 629 -82 l 629 -201 b 454 -371 629 -315 568 -365 m 125 972 l 283 972 l 804 300 l 804 972 l 972 972 l 972 0 l 829 0 l 293 692 l 293 0 l 125 0 "},"ņ":{"ha":861,"x_min":0,"x_max":0,"o":"m 329 -324 b 426 -229 399 -314 431 -283 l 351 -229 l 351 -89 l 515 -89 l 515 -208 b 340 -378 515 -322 454 -372 m 106 733 l 274 733 l 274 621 b 503 749 321 689 389 749 b 764 468 668 749 764 638 l 764 0 l 596 0 l 596 417 b 439 596 596 531 539 596 b 274 414 342 596 274 528 l 274 0 l 106 0 "},"Ñ":{"ha":1097,"x_min":0,"x_max":0,"o":"m 664 1051 b 540 1082 622 1051 579 1067 b 460 1106 510 1094 482 1106 b 382 1038 419 1106 403 1083 l 289 1067 b 444 1238 318 1175 360 1238 b 568 1206 486 1238 529 1221 b 649 1183 599 1194 626 1183 b 725 1250 689 1183 706 1206 l 819 1222 b 664 1051 789 1114 747 1051 m 125 972 l 283 972 l 804 300 l 804 972 l 972 972 l 972 0 l 829 0 l 293 692 l 293 0 l 125 0 "},"ñ":{"ha":861,"x_min":0,"x_max":0,"o":"m 106 733 l 274 733 l 274 621 b 503 749 321 689 389 749 b 764 468 668 749 764 638 l 764 0 l 596 0 l 596 417 b 439 596 596 531 539 596 b 274 414 342 596 274 528 l 274 0 l 106 0 m 546 826 b 429 856 504 826 464 842 b 346 882 399 869 369 882 b 269 813 306 882 290 860 l 176 842 b 332 1014 207 953 247 1014 b 449 985 374 1014 414 999 b 532 958 479 971 510 958 b 608 1028 572 958 588 981 l 701 1000 b 546 826 671 888 631 826 "},"Ó":{"ha":1181,"x_min":0,"x_max":0,"o":"m 676 1268 l 829 1201 l 651 1067 l 521 1067 m 589 -17 b 82 483 290 -17 82 210 l 82 486 b 592 989 82 760 293 989 b 1099 489 890 989 1099 763 l 1099 486 b 589 -17 1099 213 888 -17 m 592 142 b 919 483 785 142 919 294 l 919 486 b 589 832 919 675 782 832 b 261 489 396 832 261 678 l 261 486 b 592 142 261 297 399 142 "},"ó":{"ha":913,"x_min":0,"x_max":0,"o":"m 533 1054 l 686 986 l 515 826 l 389 826 m 454 -17 b 65 363 231 -17 65 154 l 65 365 b 457 749 65 575 232 749 b 847 368 682 749 847 578 l 847 365 b 454 -17 847 157 681 -17 m 457 131 b 679 363 593 131 679 236 l 679 365 b 454 601 679 494 586 601 b 233 368 319 601 233 496 l 233 365 b 457 131 233 238 326 131 "},"Ŏ":{"ha":1181,"x_min":0,"x_max":0,"o":"m 590 1064 b 350 1250 457 1064 361 1131 l 469 1250 b 590 1181 486 1207 521 1181 b 711 1250 660 1181 694 1207 l 831 1250 b 590 1064 819 1131 724 1064 m 589 -17 b 82 483 290 -17 82 210 l 82 486 b 592 989 82 760 293 989 b 1099 489 890 989 1099 763 l 1099 486 b 589 -17 1099 213 888 -17 m 592 142 b 919 483 785 142 919 294 l 919 486 b 589 832 919 675 782 832 b 261 489 396 832 261 678 l 261 486 b 592 142 261 297 399 142 "},"ŏ":{"ha":913,"x_min":0,"x_max":0,"o":"m 454 -17 b 65 363 231 -17 65 154 l 65 365 b 457 749 65 575 232 749 b 847 368 682 749 847 578 l 847 365 b 454 -17 847 157 681 -17 m 457 131 b 679 363 593 131 679 236 l 679 365 b 454 601 679 494 586 601 b 233 368 319 601 233 496 l 233 365 b 457 131 233 238 326 131 m 456 824 b 218 1025 322 824 228 897 l 333 1025 b 456 940 350 975 385 940 b 578 1025 526 940 561 975 l 694 1025 b 456 824 683 897 589 824 "},"Ô":{"ha":1181,"x_min":0,"x_max":0,"o":"m 589 -17 b 82 483 290 -17 82 210 l 82 486 b 592 989 82 760 293 989 b 1099 489 890 989 1099 763 l 1099 486 b 589 -17 1099 213 888 -17 m 592 142 b 919 483 785 142 919 294 l 919 486 b 589 832 919 675 782 832 b 261 489 396 832 261 678 l 261 486 b 592 142 261 297 399 142 m 511 1254 l 669 1254 l 838 1067 l 696 1067 l 589 1147 l 482 1067 l 343 1067 "},"ô":{"ha":913,"x_min":0,"x_max":0,"o":"m 378 1031 l 533 1031 l 696 826 l 563 826 l 454 919 l 347 826 l 217 826 m 454 -17 b 65 363 231 -17 65 154 l 65 365 b 457 749 65 575 232 749 b 847 368 682 749 847 578 l 847 365 b 454 -17 847 157 681 -17 m 457 131 b 679 363 593 131 679 236 l 679 365 b 454 601 679 494 586 601 b 233 368 319 601 233 496 l 233 365 b 457 131 233 238 326 131 "},"Ö":{"ha":1181,"x_min":0,"x_max":0,"o":"m 647 1222 l 819 1222 l 819 1067 l 647 1067 m 361 1222 l 535 1222 l 535 1067 l 361 1067 m 589 -17 b 82 483 290 -17 82 210 l 82 486 b 592 989 82 760 293 989 b 1099 489 890 989 1099 763 l 1099 486 b 589 -17 1099 213 888 -17 m 592 142 b 919 483 785 142 919 294 l 919 486 b 589 832 919 675 782 832 b 261 489 396 832 261 678 l 261 486 b 592 142 261 297 399 142 "},"ö":{"ha":913,"x_min":0,"x_max":0,"o":"m 506 992 l 676 992 l 676 826 l 506 826 m 235 992 l 406 992 l 406 826 l 235 826 m 454 -17 b 65 363 231 -17 65 154 l 65 365 b 457 749 65 575 232 749 b 847 368 682 749 847 578 l 847 365 b 454 -17 847 157 681 -17 m 457 131 b 679 363 593 131 679 236 l 679 365 b 454 601 679 494 586 601 b 233 368 319 601 233 496 l 233 365 b 457 131 233 238 326 131 "},"Œ":{"ha":1525,"x_min":0,"x_max":0,"o":"m 599 0 b 82 483 293 0 82 210 l 82 486 b 599 972 82 760 293 972 l 1440 972 l 1440 819 l 921 819 l 921 567 l 1378 567 l 1378 414 l 921 414 l 921 153 l 1447 153 l 1447 0 l 599 0 m 750 156 l 750 817 l 599 817 b 261 489 394 817 261 679 l 261 486 b 599 156 261 296 394 156 "},"œ":{"ha":1444,"x_min":0,"x_max":0,"o":"m 446 -17 b 65 363 235 -17 65 154 l 65 365 b 453 749 65 575 235 749 b 746 597 578 749 683 689 b 1029 749 807 689 908 749 b 1379 354 1261 749 1379 565 b 1376 307 1379 339 1378 324 l 838 307 b 1049 121 857 188 942 121 b 1249 208 1132 121 1190 151 l 1347 121 b 1047 -17 1276 38 1181 -17 b 744 138 919 -17 810 42 b 446 -17 681 44 572 -17 m 1214 418 b 1028 611 1201 526 1139 611 b 836 418 924 611 851 532 m 453 131 b 669 363 585 131 669 236 l 669 365 b 450 601 669 494 578 601 b 233 368 318 601 233 493 l 233 365 b 453 131 233 238 325 131 "},"Ò":{"ha":1181,"x_min":0,"x_max":0,"o":"m 526 1067 l 350 1201 l 501 1268 l 658 1067 m 589 -17 b 82 483 290 -17 82 210 l 82 486 b 592 989 82 760 293 989 b 1099 489 890 989 1099 763 l 1099 486 b 589 -17 1099 213 888 -17 m 592 142 b 919 483 785 142 919 294 l 919 486 b 589 832 919 675 782 832 b 261 489 396 832 261 678 l 261 486 b 592 142 261 297 399 142 "},"ò":{"ha":913,"x_min":0,"x_max":0,"o":"m 454 -17 b 65 363 231 -17 65 154 l 65 365 b 457 749 65 575 232 749 b 847 368 682 749 847 578 l 847 365 b 454 -17 847 157 681 -17 m 457 131 b 679 363 593 131 679 236 l 679 365 b 454 601 679 494 586 601 b 233 368 319 601 233 496 l 233 365 b 457 131 233 238 326 131 m 225 986 l 378 1054 l 522 826 l 396 826 "},"Ő":{"ha":1181,"x_min":0,"x_max":0,"o":"m 589 -17 b 82 483 290 -17 82 210 l 82 486 b 592 989 82 760 293 989 b 1099 489 890 989 1099 763 l 1099 486 b 589 -17 1099 213 888 -17 m 592 142 b 919 483 785 142 919 294 l 919 486 b 589 832 919 675 782 832 b 261 489 396 832 261 678 l 261 486 b 592 142 261 297 399 142 m 546 1268 l 693 1201 l 517 1067 l 390 1067 m 789 1268 l 936 1201 l 760 1067 l 633 1067 "},"ő":{"ha":913,"x_min":0,"x_max":0,"o":"m 643 1054 l 790 986 l 619 826 l 497 826 m 404 1054 l 551 986 l 383 826 l 261 826 m 454 -17 b 65 363 231 -17 65 154 l 65 365 b 457 749 65 575 232 749 b 847 368 682 749 847 578 l 847 365 b 454 -17 847 157 681 -17 m 457 131 b 679 363 593 131 679 236 l 679 365 b 454 601 679 494 586 601 b 233 368 319 601 233 496 l 233 365 b 457 131 233 238 326 131 "},"Ō":{"ha":1181,"x_min":0,"x_max":0,"o":"m 342 1207 l 840 1207 l 840 1082 l 342 1082 m 589 -17 b 82 483 290 -17 82 210 l 82 486 b 592 989 82 760 293 989 b 1099 489 890 989 1099 763 l 1099 486 b 589 -17 1099 213 888 -17 m 592 142 b 919 483 785 142 919 294 l 919 486 b 589 832 919 675 782 832 b 261 489 396 832 261 678 l 261 486 b 592 142 261 297 399 142 "},"ō":{"ha":913,"x_min":0,"x_max":0,"o":"m 219 964 l 692 964 l 692 842 l 219 842 m 454 -17 b 65 363 231 -17 65 154 l 65 365 b 457 749 65 575 232 749 b 847 368 682 749 847 578 l 847 365 b 454 -17 847 157 681 -17 m 457 131 b 679 363 593 131 679 236 l 679 365 b 454 601 679 494 586 601 b 233 368 319 601 233 496 l 233 365 b 457 131 233 238 326 131 "},"Ø":{"ha":1181,"x_min":0,"x_max":0,"o":"m 1110 979 l 972 824 b 1099 489 1053 735 1099 617 l 1099 486 b 589 -17 1099 213 888 -17 b 304 64 481 -17 383 13 l 239 -7 l 71 -7 l 207 149 b 82 483 128 238 82 356 l 82 486 b 592 989 82 760 293 989 b 875 907 700 989 796 958 l 942 979 m 592 138 b 924 483 786 138 924 293 l 924 485 b 858 696 924 564 900 636 l 411 190 b 592 138 461 157 524 138 m 258 488 b 322 276 258 408 282 335 l 769 782 b 589 835 718 815 657 835 b 258 489 394 835 258 679 l 258 488 "},"ø":{"ha":913,"x_min":0,"x_max":0,"o":"m 868 742 l 756 615 b 847 368 814 549 847 463 l 847 365 b 454 -17 847 157 681 -17 b 243 42 375 -17 303 4 l 197 -7 l 44 -7 l 156 117 b 65 363 99 182 65 268 l 65 365 b 457 749 65 575 232 749 b 668 690 536 749 608 726 l 715 742 m 457 125 b 683 363 596 125 683 233 l 683 365 b 647 496 683 413 669 458 l 343 156 b 457 125 375 136 414 125 m 229 367 b 265 235 229 318 242 274 l 569 574 b 454 606 536 594 497 606 b 229 368 317 606 229 497 l 229 367 "},"Ǿ":{"ha":1181,"x_min":0,"x_max":0,"o":"m 1110 979 l 972 824 b 1099 489 1053 735 1099 617 l 1099 486 b 589 -17 1099 213 888 -17 b 304 64 481 -17 383 13 l 239 -7 l 71 -7 l 207 149 b 82 483 128 238 82 356 l 82 486 b 592 989 82 760 293 989 b 875 907 700 989 796 958 l 942 979 m 592 138 b 924 483 786 138 924 293 l 924 485 b 858 696 924 564 900 636 l 411 190 b 592 138 461 157 524 138 m 258 488 b 322 276 258 408 282 335 l 769 782 b 589 835 718 815 657 835 b 258 489 394 835 258 679 l 258 488 m 676 1268 l 829 1201 l 651 1067 l 521 1067 "},"ǿ":{"ha":913,"x_min":0,"x_max":0,"o":"m 868 742 l 756 615 b 847 368 814 549 847 463 l 847 365 b 454 -17 847 157 681 -17 b 243 42 375 -17 303 4 l 197 -7 l 44 -7 l 156 117 b 65 363 99 182 65 268 l 65 365 b 457 749 65 575 232 749 b 668 690 536 749 608 726 l 715 742 m 457 125 b 683 363 596 125 683 233 l 683 365 b 647 496 683 413 669 458 l 343 156 b 457 125 375 136 414 125 m 229 367 b 265 235 229 318 242 274 l 569 574 b 454 606 536 594 497 606 b 229 368 317 606 229 497 l 229 367 m 533 1054 l 686 986 l 515 826 l 389 826 "},"Õ":{"ha":1181,"x_min":0,"x_max":0,"o":"m 706 1067 b 582 1097 664 1067 621 1082 b 501 1121 551 1110 524 1121 b 424 1053 461 1121 444 1099 l 331 1082 b 486 1253 360 1190 401 1253 b 610 1221 528 1253 571 1236 b 690 1199 640 1210 668 1199 b 767 1265 731 1199 747 1221 l 861 1238 b 706 1067 831 1129 789 1067 m 589 -17 b 82 483 290 -17 82 210 l 82 486 b 592 989 82 760 293 989 b 1099 489 890 989 1099 763 l 1099 486 b 589 -17 1099 213 888 -17 m 592 142 b 919 483 785 142 919 294 l 919 486 b 589 832 919 675 782 832 b 261 489 396 832 261 678 l 261 486 b 592 142 261 297 399 142 "},"õ":{"ha":913,"x_min":0,"x_max":0,"o":"m 454 -17 b 65 363 231 -17 65 154 l 65 365 b 457 749 65 575 232 749 b 847 368 682 749 847 578 l 847 365 b 454 -17 847 157 681 -17 m 457 131 b 679 363 593 131 679 236 l 679 365 b 454 601 679 494 586 601 b 233 368 319 601 233 496 l 233 365 b 457 131 233 238 326 131 m 568 826 b 451 856 526 826 486 842 b 368 882 421 869 392 882 b 292 813 328 882 313 860 l 199 842 b 354 1014 229 953 269 1014 b 471 985 396 1014 436 999 b 554 958 501 971 532 958 b 631 1028 594 958 610 981 l 724 1000 b 568 826 693 888 653 826 "},"Ŕ":{"ha":1004,"x_min":0,"x_max":0,"o":"m 125 972 l 558 972 b 839 875 681 972 776 936 b 919 665 890 822 919 750 l 919 663 b 689 368 919 503 824 407 l 951 0 l 749 0 l 510 339 l 296 339 l 296 0 l 125 0 m 546 490 b 746 653 668 490 746 554 l 746 656 b 544 817 746 760 671 817 l 296 817 l 296 490 m 576 1254 l 729 1188 l 551 1053 l 421 1053 "},"ŕ":{"ha":574,"x_min":0,"x_max":0,"o":"m 388 1054 l 540 986 l 369 826 l 243 826 m 106 733 l 274 733 l 274 568 b 533 747 319 678 404 753 l 533 569 l 524 569 b 274 279 376 569 274 474 l 274 0 l 106 0 "},"Ř":{"ha":1004,"x_min":0,"x_max":0,"o":"m 125 972 l 558 972 b 839 875 681 972 776 936 b 919 665 890 822 919 750 l 919 663 b 689 368 919 503 824 407 l 951 0 l 749 0 l 510 339 l 296 339 l 296 0 l 125 0 m 546 490 b 746 653 668 490 746 554 l 746 656 b 544 817 746 760 671 817 l 296 817 l 296 490 m 568 1053 l 410 1053 l 242 1240 l 383 1240 l 490 1161 l 597 1240 l 736 1240 "},"ř":{"ha":574,"x_min":0,"x_max":0,"o":"m 389 826 l 233 826 l 72 1031 l 206 1031 l 313 938 l 421 1031 l 551 1031 m 106 733 l 274 733 l 274 568 b 533 747 319 678 404 753 l 533 569 l 524 569 b 274 279 376 569 274 474 l 274 0 l 106 0 "},"Ŗ":{"ha":1004,"x_min":0,"x_max":0,"o":"m 125 972 l 558 972 b 839 875 681 972 776 936 b 919 665 890 822 919 750 l 919 663 b 689 368 919 503 824 407 l 951 0 l 749 0 l 510 339 l 296 339 l 296 0 l 125 0 m 546 490 b 746 653 668 490 746 554 l 746 656 b 544 817 746 760 671 817 l 296 817 l 296 490 m 385 -317 b 482 -222 454 -307 486 -276 l 407 -222 l 407 -82 l 571 -82 l 571 -201 b 396 -371 571 -315 510 -365 "},"ŗ":{"ha":574,"x_min":0,"x_max":0,"o":"m 94 -324 b 192 -229 164 -314 196 -283 l 117 -229 l 117 -89 l 281 -89 l 281 -208 b 106 -378 281 -322 219 -372 m 106 733 l 274 733 l 274 568 b 533 747 319 678 404 753 l 533 569 l 524 569 b 274 279 376 569 274 474 l 274 0 l 106 0 "},"Ś":{"ha":889,"x_min":0,"x_max":0,"o":"m 465 -14 b 60 142 317 -14 176 38 l 163 264 b 469 138 256 183 350 138 b 642 260 575 138 642 188 l 642 263 b 422 411 642 332 603 369 b 99 701 215 461 99 522 l 99 704 b 431 986 99 871 238 986 b 783 864 572 986 685 943 l 692 735 b 428 835 604 800 517 835 b 269 719 328 835 269 783 l 269 717 b 501 564 269 642 314 608 b 813 279 707 514 813 440 l 813 276 b 465 -14 813 94 669 -14 m 538 1268 l 690 1201 l 513 1067 l 382 1067 "},"ś":{"ha":696,"x_min":0,"x_max":0,"o":"m 429 1054 l 582 986 l 411 826 l 285 826 m 357 -14 b 46 96 253 -14 138 24 l 121 210 b 361 119 201 150 286 119 b 475 199 433 119 475 150 l 475 201 b 311 304 475 258 397 278 b 82 519 203 335 82 379 l 82 522 b 343 746 82 661 197 746 b 613 663 435 746 535 714 l 546 543 b 339 613 475 586 400 613 b 236 540 274 613 236 582 l 236 538 b 401 433 236 483 315 461 b 629 219 508 400 629 351 l 629 217 b 357 -14 629 63 510 -14 "},"Š":{"ha":889,"x_min":0,"x_max":0,"o":"m 465 -14 b 60 142 317 -14 176 38 l 163 264 b 469 138 256 183 350 138 b 642 260 575 138 642 188 l 642 263 b 422 411 642 332 603 369 b 99 701 215 461 99 522 l 99 704 b 431 986 99 871 238 986 b 783 864 572 986 685 943 l 692 735 b 428 835 604 800 517 835 b 269 719 328 835 269 783 l 269 717 b 501 564 269 642 314 608 b 813 279 707 514 813 440 l 813 276 b 465 -14 813 94 669 -14 m 531 1067 l 372 1067 l 204 1254 l 346 1254 l 453 1175 l 560 1254 l 699 1254 "},"š":{"ha":696,"x_min":0,"x_max":0,"o":"m 429 826 l 274 826 l 113 1031 l 246 1031 l 353 938 l 461 1031 l 592 1031 m 357 -14 b 46 96 253 -14 138 24 l 121 210 b 361 119 201 150 286 119 b 475 199 433 119 475 150 l 475 201 b 311 304 475 258 397 278 b 82 519 203 335 82 379 l 82 522 b 343 746 82 661 197 746 b 613 663 435 746 535 714 l 546 543 b 339 613 475 586 400 613 b 236 540 274 613 236 582 l 236 538 b 401 433 236 483 315 461 b 629 219 508 400 629 351 l 629 217 b 357 -14 629 63 510 -14 "},"Ş":{"ha":889,"x_min":0,"x_max":0,"o":"m 279 -168 l 388 -8 b 60 142 268 6 156 56 l 163 264 b 469 138 256 183 350 138 b 642 260 575 138 642 188 l 642 263 b 422 411 642 332 603 369 b 99 701 215 461 99 522 l 99 704 b 431 986 99 871 238 986 b 783 864 572 986 685 943 l 692 735 b 428 835 604 800 517 835 b 269 719 328 835 269 783 l 269 717 b 501 564 269 642 314 608 b 813 279 707 514 813 440 l 813 276 b 519 -11 813 111 694 7 l 426 -231 "},"ş":{"ha":696,"x_min":0,"x_max":0,"o":"m 167 -168 l 276 -7 b 46 96 196 7 114 42 l 121 210 b 361 119 201 150 286 119 b 475 199 433 119 475 150 l 475 201 b 311 304 475 258 397 278 b 82 519 203 335 82 379 l 82 522 b 343 746 82 661 197 746 b 613 663 435 746 535 714 l 546 543 b 339 613 475 586 400 613 b 236 540 274 613 236 582 l 236 538 b 401 433 236 483 315 461 b 629 219 508 400 629 351 l 629 217 b 407 -11 629 79 535 4 l 314 -231 "},"Ș":{"ha":889,"x_min":0,"x_max":0,"o":"m 346 -328 b 443 -233 415 -318 447 -287 l 368 -233 l 368 -93 l 532 -93 l 532 -212 b 357 -382 532 -326 471 -376 m 465 -14 b 60 142 317 -14 176 38 l 163 264 b 469 138 256 183 350 138 b 642 260 575 138 642 188 l 642 263 b 422 411 642 332 603 369 b 99 701 215 461 99 522 l 99 704 b 431 986 99 871 238 986 b 783 864 572 986 685 943 l 692 735 b 428 835 604 800 517 835 b 269 719 328 835 269 783 l 269 717 b 501 564 269 642 314 608 b 813 279 707 514 813 440 l 813 276 b 465 -14 813 94 669 -14 "},"ș":{"ha":696,"x_min":0,"x_max":0,"o":"m 247 -324 b 344 -229 317 -314 349 -283 l 269 -229 l 269 -89 l 433 -89 l 433 -208 b 258 -378 433 -322 372 -372 m 357 -14 b 46 96 253 -14 138 24 l 121 210 b 361 119 201 150 286 119 b 475 199 433 119 475 150 l 475 201 b 311 304 475 258 397 278 b 82 519 203 335 82 379 l 82 522 b 343 746 82 661 197 746 b 613 663 435 746 535 714 l 546 543 b 339 613 475 586 400 613 b 236 540 274 613 236 582 l 236 538 b 401 433 236 483 315 461 b 629 219 508 400 629 351 l 629 217 b 357 -14 629 63 510 -14 "},"Ť":{"ha":900,"x_min":0,"x_max":0,"o":"m 529 1053 l 371 1053 l 203 1240 l 344 1240 l 451 1161 l 558 1240 l 697 1240 m 364 814 l 56 814 l 56 972 l 844 972 l 844 814 l 536 814 l 536 0 l 364 0 "},"ť":{"ha":571,"x_min":0,"x_max":0,"o":"m 426 1082 l 557 1082 l 557 1078 l 479 818 l 410 818 m 351 -12 b 140 203 228 -12 140 42 l 140 589 l 47 589 l 47 733 l 140 733 l 140 935 l 308 935 l 308 733 l 506 733 l 506 589 l 308 589 l 308 229 b 399 138 308 164 342 138 b 503 163 436 138 469 146 l 503 25 b 351 -12 461 1 415 -12 "},"Ţ":{"ha":900,"x_min":0,"x_max":0,"o":"m 344 -324 b 442 -229 414 -314 446 -283 l 367 -229 l 367 -89 l 531 -89 l 531 -208 b 356 -378 531 -322 469 -372 m 364 814 l 56 814 l 56 972 l 844 972 l 844 814 l 536 814 l 536 0 l 364 0 "},"ţ":{"ha":571,"x_min":0,"x_max":0,"o":"m 206 -324 b 303 -229 275 -314 307 -283 l 228 -229 l 228 -89 l 392 -89 l 392 -208 b 217 -378 392 -322 331 -372 m 351 -12 b 140 203 228 -12 140 42 l 140 589 l 47 589 l 47 733 l 140 733 l 140 935 l 308 935 l 308 733 l 506 733 l 506 589 l 308 589 l 308 229 b 399 138 308 164 342 138 b 503 163 436 138 469 146 l 503 25 b 351 -12 461 1 415 -12 "},"Þ":{"ha":935,"x_min":0,"x_max":0,"o":"m 125 972 l 296 972 l 296 821 l 508 821 b 878 496 736 821 878 692 l 878 493 b 489 161 878 274 703 161 l 296 161 l 296 0 l 125 0 m 494 314 b 704 489 624 314 704 388 l 704 492 b 494 665 704 606 622 665 l 296 665 l 296 314 "},"þ":{"ha":932,"x_min":0,"x_max":0,"o":"m 106 1014 l 274 1014 l 274 611 b 524 749 328 688 404 749 b 864 368 696 749 864 613 l 864 365 b 524 -15 864 122 697 -15 b 274 114 401 -15 325 46 l 274 -222 l 106 -222 m 483 131 b 693 365 599 131 693 221 l 693 368 b 483 603 693 510 597 603 b 269 368 369 603 269 508 l 269 365 b 483 131 269 225 369 131 "},"Ú":{"ha":1051,"x_min":0,"x_max":0,"o":"m 613 1253 l 765 1186 l 588 1051 l 457 1051 m 524 -15 b 110 413 271 -15 110 131 l 110 972 l 281 972 l 281 419 b 526 143 281 239 374 143 b 771 413 678 143 771 233 l 771 972 l 942 972 l 942 421 b 524 -15 942 131 778 -15 "},"ú":{"ha":861,"x_min":0,"x_max":0,"o":"m 503 1054 l 656 986 l 485 826 l 358 826 m 358 -15 b 97 267 193 -15 97 96 l 97 733 l 265 733 l 265 317 b 422 139 265 203 322 139 b 588 319 519 139 588 206 l 588 733 l 757 733 l 757 0 l 588 0 l 588 114 b 358 -15 540 44 472 -15 "},"Ŭ":{"ha":1051,"x_min":0,"x_max":0,"o":"m 525 1039 b 285 1225 392 1039 296 1106 l 404 1225 b 525 1156 421 1182 456 1156 b 646 1225 594 1156 629 1182 l 765 1225 b 525 1039 754 1106 658 1039 m 524 -15 b 110 413 271 -15 110 131 l 110 972 l 281 972 l 281 419 b 526 143 281 239 374 143 b 771 413 678 143 771 233 l 771 972 l 942 972 l 942 421 b 524 -15 942 131 778 -15 "},"ŭ":{"ha":861,"x_min":0,"x_max":0,"o":"m 358 -15 b 97 267 193 -15 97 96 l 97 733 l 265 733 l 265 317 b 422 139 265 203 322 139 b 588 319 519 139 588 206 l 588 733 l 757 733 l 757 0 l 588 0 l 588 114 b 358 -15 540 44 472 -15 m 425 824 b 188 1025 292 824 197 897 l 303 1025 b 425 940 319 975 354 940 b 547 1025 496 940 531 975 l 664 1025 b 425 824 653 897 558 824 "},"Û":{"ha":1051,"x_min":0,"x_max":0,"o":"m 524 -15 b 110 413 271 -15 110 131 l 110 972 l 281 972 l 281 419 b 526 143 281 239 374 143 b 771 413 678 143 771 233 l 771 972 l 942 972 l 942 421 b 524 -15 942 131 778 -15 m 446 1239 l 604 1239 l 772 1051 l 631 1051 l 524 1132 l 417 1051 l 278 1051 "},"û":{"ha":861,"x_min":0,"x_max":0,"o":"m 347 1031 l 503 1031 l 665 826 l 532 826 l 424 919 l 317 826 l 186 826 m 358 -15 b 97 267 193 -15 97 96 l 97 733 l 265 733 l 265 317 b 422 139 265 203 322 139 b 588 319 519 139 588 206 l 588 733 l 757 733 l 757 0 l 588 0 l 588 114 b 358 -15 540 44 472 -15 "},"Ü":{"ha":1051,"x_min":0,"x_max":0,"o":"m 582 1207 l 754 1207 l 754 1051 l 582 1051 m 296 1207 l 469 1207 l 469 1051 l 296 1051 m 524 -15 b 110 413 271 -15 110 131 l 110 972 l 281 972 l 281 419 b 526 143 281 239 374 143 b 771 413 678 143 771 233 l 771 972 l 942 972 l 942 421 b 524 -15 942 131 778 -15 "},"ü":{"ha":861,"x_min":0,"x_max":0,"o":"m 475 992 l 646 992 l 646 826 l 475 826 m 204 992 l 375 992 l 375 826 l 204 826 m 358 -15 b 97 267 193 -15 97 96 l 97 733 l 265 733 l 265 317 b 422 139 265 203 322 139 b 588 319 519 139 588 206 l 588 733 l 757 733 l 757 0 l 588 0 l 588 114 b 358 -15 540 44 472 -15 "},"Ù":{"ha":1051,"x_min":0,"x_max":0,"o":"m 463 1051 l 286 1186 l 438 1253 l 594 1051 m 524 -15 b 110 413 271 -15 110 131 l 110 972 l 281 972 l 281 419 b 526 143 281 239 374 143 b 771 413 678 143 771 233 l 771 972 l 942 972 l 942 421 b 524 -15 942 131 778 -15 "},"ù":{"ha":861,"x_min":0,"x_max":0,"o":"m 358 -15 b 97 267 193 -15 97 96 l 97 733 l 265 733 l 265 317 b 422 139 265 203 322 139 b 588 319 519 139 588 206 l 588 733 l 757 733 l 757 0 l 588 0 l 588 114 b 358 -15 540 44 472 -15 m 194 986 l 347 1054 l 492 826 l 365 826 "},"Ű":{"ha":1051,"x_min":0,"x_max":0,"o":"m 524 -15 b 110 413 271 -15 110 131 l 110 972 l 281 972 l 281 419 b 526 143 281 239 374 143 b 771 413 678 143 771 233 l 771 972 l 942 972 l 942 421 b 524 -15 942 131 778 -15 m 481 1253 l 628 1186 l 451 1051 l 325 1051 m 724 1253 l 871 1186 l 694 1051 l 568 1051 "},"ű":{"ha":861,"x_min":0,"x_max":0,"o":"m 358 -15 b 97 267 193 -15 97 96 l 97 733 l 265 733 l 265 317 b 422 139 265 203 322 139 b 588 319 519 139 588 206 l 588 733 l 757 733 l 757 0 l 588 0 l 588 114 b 358 -15 540 44 472 -15 m 613 1054 l 760 986 l 589 826 l 467 826 m 374 1054 l 521 986 l 353 826 l 231 826 "},"Ū":{"ha":1051,"x_min":0,"x_max":0,"o":"m 276 1192 l 775 1192 l 775 1067 l 276 1067 m 524 -15 b 110 413 271 -15 110 131 l 110 972 l 281 972 l 281 419 b 526 143 281 239 374 143 b 771 413 678 143 771 233 l 771 972 l 942 972 l 942 421 b 524 -15 942 131 778 -15 "},"ū":{"ha":861,"x_min":0,"x_max":0,"o":"m 358 -15 b 97 267 193 -15 97 96 l 97 733 l 265 733 l 265 317 b 422 139 265 203 322 139 b 588 319 519 139 588 206 l 588 733 l 757 733 l 757 0 l 588 0 l 588 114 b 358 -15 540 44 472 -15 m 189 964 l 661 964 l 661 842 l 189 842 "},"Ų":{"ha":1051,"x_min":0,"x_max":0,"o":"m 636 -228 b 592 -231 619 -229 604 -231 b 408 -114 472 -229 408 -181 b 454 -11 408 -76 425 -44 b 110 413 242 14 110 157 l 110 972 l 281 972 l 281 419 b 526 143 281 239 374 143 b 771 413 678 143 771 233 l 771 972 l 942 972 l 942 421 b 569 -12 942 149 797 4 b 536 -87 544 -40 536 -64 b 636 -147 536 -128 569 -147 "},"ų":{"ha":861,"x_min":0,"x_max":0,"o":"m 358 -15 b 97 267 193 -15 97 96 l 97 733 l 265 733 l 265 317 b 422 139 265 203 322 139 b 588 319 519 139 588 206 l 588 733 l 757 733 l 757 0 l 718 0 b 672 -87 685 -33 672 -61 b 772 -147 672 -128 706 -147 l 772 -228 b 728 -231 756 -229 740 -231 b 544 -114 608 -229 544 -181 b 600 0 544 -72 565 -36 l 588 0 l 588 114 b 358 -15 540 44 472 -15 "},"Ů":{"ha":1051,"x_min":0,"x_max":0,"o":"m 524 -15 b 110 413 271 -15 110 131 l 110 972 l 281 972 l 281 419 b 526 143 281 239 374 143 b 771 413 678 143 771 233 l 771 972 l 942 972 l 942 421 b 524 -15 942 131 778 -15 m 525 1019 b 360 1167 436 1019 360 1081 b 525 1313 360 1251 436 1313 b 690 1167 614 1313 690 1251 b 525 1019 690 1081 614 1019 m 525 1085 b 615 1167 578 1085 615 1121 b 525 1247 615 1211 578 1247 b 436 1167 472 1247 436 1211 b 525 1085 436 1121 472 1085 "},"ů":{"ha":861,"x_min":0,"x_max":0,"o":"m 425 806 b 264 961 336 806 264 875 b 425 1117 264 1047 336 1117 b 586 961 514 1117 586 1047 b 425 806 586 875 514 806 m 425 868 b 518 961 476 868 518 910 b 425 1054 518 1013 476 1054 b 332 961 374 1054 332 1013 b 425 868 332 910 374 868 m 358 -15 b 97 267 193 -15 97 96 l 97 733 l 265 733 l 265 317 b 422 139 265 203 322 139 b 588 319 519 139 588 206 l 588 733 l 757 733 l 757 0 l 588 0 l 588 114 b 358 -15 540 44 472 -15 "},"Ẃ":{"ha":1550,"x_min":0,"x_max":0,"o":"m 861 1254 l 1014 1188 l 836 1053 l 706 1053 m 50 972 l 235 972 l 467 251 l 706 975 l 850 975 l 1089 251 l 1321 972 l 1500 972 l 1163 -7 l 1014 -7 l 775 692 l 536 -7 l 389 -7 "},"ẃ":{"ha":1196,"x_min":0,"x_max":0,"o":"m 674 1054 l 826 986 l 656 826 l 529 826 m 44 733 l 217 733 l 364 231 l 526 736 l 671 736 l 833 231 l 983 733 l 1153 733 l 913 -6 l 761 -6 l 597 496 l 432 -6 l 282 -6 "},"Ŵ":{"ha":1550,"x_min":0,"x_max":0,"o":"m 50 972 l 235 972 l 467 251 l 706 975 l 850 975 l 1089 251 l 1321 972 l 1500 972 l 1163 -7 l 1014 -7 l 775 692 l 536 -7 l 389 -7 m 696 1240 l 854 1240 l 1022 1053 l 881 1053 l 774 1133 l 667 1053 l 528 1053 "},"ŵ":{"ha":1196,"x_min":0,"x_max":0,"o":"m 519 1031 l 675 1031 l 838 826 l 704 826 l 596 919 l 489 826 l 358 826 m 44 733 l 217 733 l 364 231 l 526 736 l 671 736 l 833 231 l 983 733 l 1153 733 l 913 -6 l 761 -6 l 597 496 l 432 -6 l 282 -6 "},"Ẅ":{"ha":1550,"x_min":0,"x_max":0,"o":"m 832 1208 l 1004 1208 l 1004 1053 l 832 1053 m 546 1208 l 719 1208 l 719 1053 l 546 1053 m 50 972 l 235 972 l 467 251 l 706 975 l 850 975 l 1089 251 l 1321 972 l 1500 972 l 1163 -7 l 1014 -7 l 775 692 l 536 -7 l 389 -7 "},"ẅ":{"ha":1196,"x_min":0,"x_max":0,"o":"m 647 992 l 818 992 l 818 826 l 647 826 m 376 992 l 547 992 l 547 826 l 376 826 m 44 733 l 217 733 l 364 231 l 526 736 l 671 736 l 833 231 l 983 733 l 1153 733 l 913 -6 l 761 -6 l 597 496 l 432 -6 l 282 -6 "},"Ẁ":{"ha":1550,"x_min":0,"x_max":0,"o":"m 711 1053 l 535 1188 l 686 1254 l 843 1053 m 50 972 l 235 972 l 467 251 l 706 975 l 850 975 l 1089 251 l 1321 972 l 1500 972 l 1163 -7 l 1014 -7 l 775 692 l 536 -7 l 389 -7 "},"ẁ":{"ha":1196,"x_min":0,"x_max":0,"o":"m 44 733 l 217 733 l 364 231 l 526 736 l 671 736 l 833 231 l 983 733 l 1153 733 l 913 -6 l 761 -6 l 597 496 l 432 -6 l 282 -6 m 367 986 l 519 1054 l 664 826 l 538 826 "},"Ý":{"ha":994,"x_min":0,"x_max":0,"o":"m 411 383 l 25 972 l 228 972 l 499 543 l 774 972 l 969 972 l 583 388 l 583 0 l 411 0 m 583 1253 l 736 1186 l 558 1051 l 428 1051 "},"ý":{"ha":828,"x_min":0,"x_max":0,"o":"m 614 733 l 789 733 l 497 -21 b 256 -226 439 -171 374 -226 b 82 -182 186 -226 133 -210 l 139 -57 b 238 -85 169 -74 203 -85 b 342 -1 285 -85 314 -64 l 36 733 l 217 733 l 424 189 m 492 1054 l 644 986 l 474 826 l 347 826 "},"Ŷ":{"ha":994,"x_min":0,"x_max":0,"o":"m 411 383 l 25 972 l 228 972 l 499 543 l 774 972 l 969 972 l 583 388 l 583 0 l 411 0 m 418 1239 l 576 1239 l 744 1051 l 603 1051 l 496 1132 l 389 1051 l 250 1051 "},"ŷ":{"ha":828,"x_min":0,"x_max":0,"o":"m 614 733 l 789 733 l 497 -21 b 256 -226 439 -171 374 -226 b 82 -182 186 -226 133 -210 l 139 -57 b 238 -85 169 -74 203 -85 b 342 -1 285 -85 314 -64 l 36 733 l 217 733 l 424 189 m 336 1031 l 492 1031 l 654 826 l 521 826 l 413 919 l 306 826 l 175 826 "},"Ÿ":{"ha":994,"x_min":0,"x_max":0,"o":"m 411 383 l 25 972 l 228 972 l 499 543 l 774 972 l 969 972 l 583 388 l 583 0 l 411 0 m 554 1207 l 726 1207 l 726 1051 l 554 1051 m 268 1207 l 442 1207 l 442 1051 l 268 1051 "},"ÿ":{"ha":828,"x_min":0,"x_max":0,"o":"m 614 733 l 789 733 l 497 -21 b 256 -226 439 -171 374 -226 b 82 -182 186 -226 133 -210 l 139 -57 b 238 -85 169 -74 203 -85 b 342 -1 285 -85 314 -64 l 36 733 l 217 733 l 424 189 m 464 992 l 635 992 l 635 826 l 464 826 m 193 992 l 364 992 l 364 826 l 193 826 "},"Ỳ":{"ha":994,"x_min":0,"x_max":0,"o":"m 411 383 l 25 972 l 228 972 l 499 543 l 774 972 l 969 972 l 583 388 l 583 0 l 411 0 m 433 1051 l 257 1186 l 408 1253 l 565 1051 "},"ỳ":{"ha":828,"x_min":0,"x_max":0,"o":"m 614 733 l 789 733 l 497 -21 b 256 -226 439 -171 374 -226 b 82 -182 186 -226 133 -210 l 139 -57 b 238 -85 169 -74 203 -85 b 342 -1 285 -85 314 -64 l 36 733 l 217 733 l 424 189 m 183 986 l 336 1054 l 481 826 l 354 826 "},"Ź":{"ha":975,"x_min":0,"x_max":0,"o":"m 90 126 l 664 821 l 108 821 l 108 972 l 888 972 l 888 846 l 313 151 l 888 151 l 888 0 l 90 0 m 583 1254 l 736 1188 l 558 1053 l 428 1053 "},"ź":{"ha":778,"x_min":0,"x_max":0,"o":"m 469 1054 l 622 986 l 451 826 l 325 826 m 72 115 l 496 596 l 88 596 l 88 733 l 710 733 l 710 618 l 286 138 l 710 138 l 710 0 l 72 0 "},"Ž":{"ha":975,"x_min":0,"x_max":0,"o":"m 575 1053 l 417 1053 l 249 1240 l 390 1240 l 497 1161 l 604 1240 l 743 1240 m 90 126 l 664 821 l 108 821 l 108 972 l 888 972 l 888 846 l 313 151 l 888 151 l 888 0 l 90 0 "},"ž":{"ha":778,"x_min":0,"x_max":0,"o":"m 469 826 l 314 826 l 153 1031 l 286 1031 l 393 938 l 501 1031 l 632 1031 m 72 115 l 496 596 l 88 596 l 88 733 l 710 733 l 710 618 l 286 138 l 710 138 l 710 0 l 72 0 "},"Ż":{"ha":975,"x_min":0,"x_max":0,"o":"m 407 1208 l 585 1208 l 585 1053 l 407 1053 m 90 126 l 664 821 l 108 821 l 108 972 l 888 972 l 888 846 l 313 151 l 888 151 l 888 0 l 90 0 "},"ż":{"ha":778,"x_min":0,"x_max":0,"o":"m 72 115 l 496 596 l 88 596 l 88 733 l 710 733 l 710 618 l 286 138 l 710 138 l 710 0 l 72 0 m 304 992 l 479 992 l 479 826 l 304 826 "},"ə":{"ha":839,"x_min":0,"x_max":0,"o":"m 397 750 b 774 369 610 750 774 596 l 774 367 b 415 -15 774 157 625 -15 b 64 379 182 -15 64 168 b 67 426 64 394 65 410 l 606 426 b 394 613 588 546 503 613 b 196 525 313 613 254 582 l 97 613 b 397 750 167 696 263 750 m 231 315 b 417 122 242 207 306 122 b 607 315 519 122 592 201 "},"ß":{"ha":861,"x_min":0,"x_max":0,"o":"m 411 126 b 625 276 546 131 625 182 l 625 279 b 411 438 625 369 538 422 l 411 551 b 568 744 500 594 568 654 l 568 747 b 428 881 568 828 513 881 b 272 703 336 881 272 811 l 272 0 l 106 0 l 106 697 b 436 1024 106 899 233 1024 b 736 763 625 1024 736 908 l 736 760 b 582 522 736 635 663 567 b 793 275 690 486 793 414 l 793 272 b 411 -3 793 93 644 -10 "},"ﬀ":{"ha":1044,"x_min":0,"x_max":0,"o":"m 665 589 l 572 589 l 572 729 l 665 729 l 665 783 b 725 964 665 864 686 925 b 890 1022 764 1003 818 1022 b 1026 1003 949 1022 989 1014 l 1026 861 b 928 879 993 872 964 879 b 831 768 864 879 831 844 l 831 728 l 1025 728 l 1025 589 l 833 589 l 833 0 l 665 0 m 143 589 l 50 589 l 50 729 l 143 729 l 143 783 b 203 964 143 864 164 925 b 368 1022 242 1003 296 1022 b 504 1003 426 1022 467 1014 l 504 861 b 406 879 471 872 442 879 b 308 768 342 879 308 844 l 308 728 l 503 728 l 503 589 l 311 589 l 311 0 l 143 0 "},"ﬁ":{"ha":919,"x_min":0,"x_max":0,"o":"m 143 589 l 50 589 l 50 729 l 143 729 l 143 783 b 203 964 143 864 164 925 b 368 1022 242 1003 296 1022 b 504 1003 426 1022 467 1014 l 504 861 b 406 879 471 872 442 879 b 308 768 342 879 308 844 l 308 728 l 503 728 l 503 589 l 311 589 l 311 0 l 143 0 m 638 733 l 806 733 l 806 0 l 638 0 m 631 1006 l 811 1006 l 811 846 l 631 846 "},"ﬂ":{"ha":919,"x_min":0,"x_max":0,"o":"m 143 589 l 50 589 l 50 729 l 143 729 l 143 783 b 203 964 143 864 164 925 b 368 1022 242 1003 296 1022 b 504 1003 426 1022 467 1014 l 504 861 b 406 879 471 872 442 879 b 308 768 342 879 308 844 l 308 728 l 503 728 l 503 589 l 311 589 l 311 0 l 143 0 m 638 1014 l 806 1014 l 806 0 l 638 0 "},"ﬃ":{"ha":1442,"x_min":0,"x_max":0,"o":"m 665 589 l 572 589 l 572 729 l 665 729 l 665 783 b 725 964 665 864 686 925 b 890 1022 764 1003 818 1022 b 1026 1003 949 1022 989 1014 l 1026 861 b 928 879 993 872 964 879 b 831 768 864 879 831 844 l 831 728 l 1025 728 l 1025 589 l 833 589 l 833 0 l 665 0 m 143 589 l 50 589 l 50 729 l 143 729 l 143 783 b 203 964 143 864 164 925 b 368 1022 242 1003 296 1022 b 504 1003 426 1022 467 1014 l 504 861 b 406 879 471 872 442 879 b 308 768 342 879 308 844 l 308 728 l 503 728 l 503 589 l 311 589 l 311 0 l 143 0 m 1160 733 l 1328 733 l 1328 0 l 1160 0 m 1153 1006 l 1333 1006 l 1333 846 l 1153 846 "},"ﬄ":{"ha":1442,"x_min":0,"x_max":0,"o":"m 665 589 l 572 589 l 572 729 l 665 729 l 665 783 b 725 964 665 864 686 925 b 890 1022 764 1003 818 1022 b 1026 1003 949 1022 989 1014 l 1026 861 b 928 879 993 872 964 879 b 831 768 864 879 831 844 l 831 728 l 1025 728 l 1025 589 l 833 589 l 833 0 l 665 0 m 143 589 l 50 589 l 50 729 l 143 729 l 143 783 b 203 964 143 864 164 925 b 368 1022 242 1003 296 1022 b 504 1003 426 1022 467 1014 l 504 861 b 406 879 471 872 442 879 b 308 768 342 879 308 844 l 308 728 l 503 728 l 503 589 l 311 589 l 311 0 l 143 0 m 1160 1014 l 1328 1014 l 1328 0 l 1160 0 "},".":{"ha":374,"x_min":0,"x_max":0,"o":"m 94 192 l 279 192 l 279 0 l 94 0 "},",":{"ha":374,"x_min":0,"x_max":0,"o":"m 47 -131 b 167 0 132 -114 172 -71 l 94 0 l 94 192 l 279 192 l 279 29 b 65 -203 279 -125 206 -190 "},":":{"ha":388,"x_min":0,"x_max":0,"o":"m 101 733 l 286 733 l 286 543 l 101 543 m 101 192 l 286 192 l 286 0 l 101 0 "},";":{"ha":388,"x_min":0,"x_max":0,"o":"m 101 733 l 286 733 l 286 543 l 101 543 m 54 -131 b 174 0 139 -114 179 -71 l 101 0 l 101 192 l 286 192 l 286 29 b 72 -203 286 -125 213 -190 "},"…":{"ha":1100,"x_min":0,"x_max":0,"o":"m 825 186 l 1006 186 l 1006 0 l 825 0 m 460 186 l 640 186 l 640 0 l 460 0 m 94 186 l 275 186 l 275 0 l 94 0 "},"·":{"ha":374,"x_min":0,"x_max":0,"o":"m 94 521 l 279 521 l 279 331 l 94 331 "},"•":{"ha":682,"x_min":0,"x_max":0,"o":"m 342 293 b 144 488 233 293 144 379 l 144 490 b 342 686 144 599 235 686 b 538 490 447 686 538 599 l 538 488 b 342 293 538 379 449 293 "},"&":{"ha":967,"x_min":0,"x_max":0,"o":"m 669 113 b 372 -14 586 35 489 -14 b 54 264 190 -14 54 96 l 54 267 b 261 539 54 392 128 482 b 181 742 206 610 181 671 l 181 744 b 460 989 181 875 286 989 b 718 754 614 989 718 885 l 718 751 b 504 499 718 624 633 547 l 671 329 b 775 517 708 385 743 449 l 904 449 b 772 228 865 371 822 294 l 926 72 l 799 -19 m 414 590 b 567 742 514 626 567 672 l 567 744 b 457 854 567 810 521 854 b 340 738 388 854 340 806 l 340 735 b 414 590 340 686 360 650 m 389 128 b 572 213 456 128 517 160 l 356 433 b 226 272 265 394 226 335 l 226 269 b 389 128 226 188 294 128 "},"!":{"ha":419,"x_min":0,"x_max":0,"o":"m 111 924 l 111 972 l 308 972 l 308 924 l 257 308 l 164 308 m 118 192 l 303 192 l 303 0 l 118 0 "},"¡":{"ha":419,"x_min":0,"x_max":0,"o":"m 118 972 l 303 972 l 303 782 l 118 782 m 111 49 l 164 665 l 257 665 l 308 49 l 308 0 l 111 0 "},"?":{"ha":751,"x_min":0,"x_max":0,"o":"m 260 533 l 267 540 b 524 694 443 546 524 603 l 524 697 b 364 829 524 775 464 829 b 138 719 276 829 204 790 l 33 831 b 368 985 114 922 218 985 b 694 703 563 985 694 876 l 694 700 b 414 419 694 525 568 446 l 400 308 l 288 308 m 247 192 l 433 192 l 433 0 l 247 0 "},"¿":{"ha":751,"x_min":0,"x_max":0,"o":"m 318 972 l 504 972 l 504 782 l 318 782 m 383 -12 b 58 269 189 -12 58 96 l 58 272 b 338 553 58 449 183 526 l 351 665 l 464 665 l 492 440 l 485 433 b 229 278 308 426 229 369 l 229 275 b 388 143 229 197 289 143 b 614 253 475 143 547 182 l 718 142 b 383 -12 638 50 533 -12 "},"“":{"ha":696,"x_min":0,"x_max":0,"o":"m 410 749 b 624 979 410 903 483 968 l 642 907 b 524 778 557 892 517 849 l 594 778 l 594 586 l 410 586 m 88 749 b 301 979 88 903 161 968 l 319 907 b 201 778 235 892 194 849 l 272 778 l 272 586 l 88 586 "},"”":{"ha":696,"x_min":0,"x_max":0,"o":"m 376 651 b 494 782 461 667 501 710 l 424 782 l 424 972 l 608 972 l 608 810 b 394 579 608 656 535 590 m 54 651 b 174 782 139 667 179 710 l 101 782 l 101 972 l 286 972 l 286 810 b 72 579 286 656 213 590 "},"‘":{"ha":374,"x_min":0,"x_max":0,"o":"m 88 749 b 301 979 88 903 161 968 l 319 907 b 201 778 235 892 194 849 l 272 778 l 272 586 l 88 586 "},"’":{"ha":374,"x_min":0,"x_max":0,"o":"m 54 651 b 174 782 139 667 179 710 l 101 782 l 101 972 l 286 972 l 286 810 b 72 579 286 656 213 590 "},"„":{"ha":696,"x_min":0,"x_max":0,"o":"m 369 -131 b 488 0 454 -114 494 -71 l 417 0 l 417 192 l 601 192 l 601 29 b 388 -203 601 -125 528 -190 m 47 -131 b 167 0 132 -114 172 -71 l 94 0 l 94 192 l 279 192 l 279 29 b 65 -203 279 -125 206 -190 "},"‚":{"ha":374,"x_min":0,"x_max":0,"o":"m 47 -131 b 167 0 132 -114 172 -71 l 94 0 l 94 192 l 279 192 l 279 29 b 65 -203 279 -125 206 -190 "},"«":{"ha":842,"x_min":0,"x_max":0,"o":"m 411 361 l 411 372 l 650 675 l 769 615 l 594 368 l 769 121 l 650 58 m 61 361 l 61 372 l 301 675 l 419 615 l 246 368 l 419 121 l 301 58 "},"»":{"ha":842,"x_min":0,"x_max":0,"o":"m 422 119 l 596 365 l 422 613 l 540 675 l 781 372 l 781 361 l 540 58 m 74 119 l 247 365 l 74 613 l 192 675 l 431 372 l 431 361 l 192 58 "},"‹":{"ha":492,"x_min":0,"x_max":0,"o":"m 61 361 l 61 372 l 301 675 l 419 615 l 246 368 l 419 121 l 301 58 "},"›":{"ha":492,"x_min":0,"x_max":0,"o":"m 74 119 l 247 365 l 74 613 l 192 675 l 431 372 l 431 361 l 192 58 "},"-":{"ha":567,"x_min":0,"x_max":0,"o":"m 78 508 l 489 508 l 489 343 l 78 343 "},"–":{"ha":733,"x_min":0,"x_max":0,"o":"m 78 506 l 656 506 l 656 346 l 78 346 "},"—":{"ha":1247,"x_min":0,"x_max":0,"o":"m 78 506 l 1169 506 l 1169 346 l 78 346 "},"_":{"ha":833,"x_min":0,"x_max":0,"o":"m -3 -92 l 836 -92 l 836 -222 l -3 -222 "},"/":{"ha":724,"x_min":0,"x_max":0,"o":"m 593 1108 l 739 1108 l 111 -178 l -35 -178 "},"\\":{"ha":724,"x_min":0,"x_max":0,"o":"m -15 1108 l 131 1108 l 758 -178 l 613 -178 "},"|":{"ha":460,"x_min":0,"x_max":0,"o":"m 163 1108 l 297 1108 l 297 -178 l 163 -178 "},"(":{"ha":613,"x_min":0,"x_max":0,"o":"m 472 -196 b 88 399 219 -57 88 136 b 472 993 88 661 219 854 l 546 881 b 256 399 349 750 256 606 b 546 -83 256 192 349 49 l 472 -196 "},")":{"ha":613,"x_min":0,"x_max":0,"o":"m 67 -83 b 357 399 264 49 357 192 b 67 881 357 606 264 750 l 140 993 b 525 399 393 854 525 661 b 140 -196 525 136 393 -57 "},"[":{"ha":632,"x_min":0,"x_max":0,"o":"m 122 972 l 550 972 l 550 840 l 283 840 l 283 -49 l 550 -49 l 550 -181 l 122 -181 "},"]":{"ha":632,"x_min":0,"x_max":0,"o":"m 82 -49 l 349 -49 l 349 840 l 82 840 l 82 972 l 510 972 l 510 -181 l 82 -181 "},"{":{"ha":676,"x_min":0,"x_max":0,"o":"m 578 -196 b 263 82 325 -150 263 -61 b 265 182 263 103 265 158 b 108 335 265 290 224 335 l 72 335 l 72 463 l 108 463 b 265 617 224 463 265 508 b 263 717 265 640 263 696 b 578 993 263 858 325 947 l 607 882 b 418 692 440 836 418 793 b 421 589 418 664 421 618 b 276 399 421 481 368 428 b 421 208 369 368 421 317 b 418 106 421 179 418 133 b 607 -85 418 4 440 -39 l 578 -196 "},"}":{"ha":676,"x_min":0,"x_max":0,"o":"m 69 -85 b 258 106 236 -39 258 4 b 256 208 258 133 256 179 b 400 399 256 317 308 369 b 256 589 307 429 256 481 b 258 692 256 618 258 664 b 69 882 258 793 236 836 l 99 993 b 414 717 351 947 414 858 b 411 617 414 696 411 640 b 568 463 411 508 453 463 l 604 463 l 604 335 l 568 335 b 411 182 453 335 411 290 b 414 82 411 158 414 103 b 99 -196 414 -61 351 -150 "},"@":{"ha":1361,"x_min":0,"x_max":0,"o":"m 693 -225 b 74 381 338 -225 74 49 b 682 989 74 713 342 989 b 1288 439 1022 989 1288 726 b 1018 93 1288 206 1161 93 b 813 190 910 93 844 139 b 597 93 763 139 694 93 b 346 356 458 93 346 196 b 661 703 346 553 500 703 b 857 600 761 703 821 656 l 874 683 l 1008 663 l 947 313 b 940 253 943 288 940 265 b 1049 154 940 193 981 154 b 1232 439 1147 154 1232 249 b 682 936 1232 694 997 936 b 129 381 367 936 129 686 b 693 -172 129 74 364 -172 b 1036 -79 831 -172 931 -140 l 1061 -121 b 693 -225 954 -186 838 -225 m 635 214 b 758 268 681 214 725 233 b 826 433 799 308 826 368 b 681 583 826 522 764 583 b 554 528 633 583 589 563 b 489 364 514 488 489 431 b 635 214 489 268 549 214 "},"©":{"ha":1153,"x_min":0,"x_max":0,"o":"m 575 -17 b 74 483 293 -17 74 210 l 74 486 b 578 989 74 760 296 989 b 1079 489 860 989 1079 763 l 1079 486 b 575 -17 1079 213 857 -17 m 575 33 b 1026 486 832 33 1026 238 l 1026 489 b 578 939 1026 738 833 939 b 126 486 321 939 126 735 l 126 483 b 575 33 126 235 319 33 m 582 221 b 315 490 429 221 315 340 l 315 493 b 585 765 315 642 428 765 b 792 683 683 765 742 732 l 726 608 b 585 671 686 644 640 671 b 421 494 490 671 421 592 l 421 492 b 585 315 421 396 490 315 b 729 381 647 315 686 340 l 796 315 b 582 221 740 257 681 221 "},"℗":{"ha":1153,"x_min":0,"x_max":0,"o":"m 575 -17 b 74 483 293 -17 74 210 l 74 486 b 578 989 74 760 296 989 b 1079 489 860 989 1079 763 l 1079 486 b 575 -17 1079 213 857 -17 m 575 33 b 1026 486 832 33 1026 238 l 1026 489 b 578 939 1026 738 833 939 b 126 486 321 939 126 735 l 126 483 b 575 33 126 235 319 33 m 397 760 l 610 760 b 814 582 735 760 814 690 l 814 579 b 599 399 814 460 715 399 l 500 399 l 500 232 l 397 232 m 601 489 b 710 578 668 489 710 525 l 710 581 b 601 668 710 638 668 668 l 500 668 l 500 489 "},"®":{"ha":531,"x_min":0,"x_max":0,"o":"m 265 500 b 24 742 129 500 24 610 l 24 743 b 265 986 24 875 131 986 b 507 744 401 986 507 876 l 507 743 b 265 500 507 611 400 500 m 265 526 b 479 743 386 526 479 625 l 479 744 b 265 960 479 863 388 960 b 51 743 144 960 51 861 l 51 742 b 265 526 51 624 143 526 m 165 874 l 283 874 b 385 790 342 874 385 847 b 329 713 385 750 363 724 l 393 622 l 319 622 l 265 701 l 226 701 l 226 622 l 165 622 m 279 751 b 322 786 307 751 322 765 b 279 821 322 808 306 821 l 226 821 l 226 751 "},"℠":{"ha":979,"x_min":0,"x_max":0,"o":"m 494 972 l 582 972 l 711 769 l 839 972 l 924 972 l 924 544 l 846 544 l 846 849 l 714 644 l 706 644 l 574 849 l 574 544 l 494 544 m 233 536 b 42 607 165 536 93 563 l 86 663 b 238 603 131 628 179 603 b 321 658 290 603 321 625 b 219 724 321 690 299 706 b 63 850 125 746 63 772 b 221 981 63 926 125 981 b 388 924 286 981 344 960 l 344 867 b 219 911 306 893 265 911 b 142 860 169 911 142 889 b 246 793 142 826 167 811 b 400 667 339 772 400 740 b 233 536 400 586 331 536 "},"™":{"ha":958,"x_min":0,"x_max":0,"o":"m 474 972 l 561 972 l 690 769 l 819 972 l 904 972 l 904 544 l 825 544 l 825 849 l 693 644 l 685 644 l 553 849 l 553 544 l 474 544 m 168 897 l 36 897 l 36 972 l 382 972 l 382 897 l 250 897 l 250 544 l 168 544 "},"*":{"ha":597,"x_min":0,"x_max":0,"o":"m 269 700 l 131 599 l 81 683 l 239 753 l 81 822 l 131 907 l 269 806 l 250 975 l 347 975 l 328 806 l 467 907 l 517 822 l 358 753 l 517 683 l 467 599 l 328 700 l 347 531 l 250 531 "},"†":{"ha":569,"x_min":0,"x_max":0,"o":"m 247 713 l 78 700 l 78 799 l 246 786 l 229 972 l 340 972 l 325 786 l 492 799 l 492 700 l 324 713 l 335 331 l 235 331 "},"‡":{"ha":597,"x_min":0,"x_max":0,"o":"m 260 186 l 92 174 l 92 272 l 260 260 l 249 486 l 260 713 l 92 700 l 92 799 l 260 786 l 243 972 l 354 972 l 339 786 l 506 799 l 506 700 l 338 713 l 349 486 l 338 260 l 506 272 l 506 174 l 339 186 l 354 0 l 243 0 "},"$":{"ha":892,"x_min":0,"x_max":0,"o":"m 700 733 b 511 824 639 778 575 810 l 511 557 b 813 272 722 504 813 421 l 813 269 b 517 0 813 118 693 17 l 517 -136 l 396 -136 l 396 3 b 68 140 275 17 161 65 l 157 268 b 401 146 236 203 311 161 l 401 419 b 104 704 199 472 104 547 l 104 707 b 396 972 104 856 222 957 l 396 1053 l 517 1053 l 517 969 b 778 864 617 957 700 921 m 649 263 b 511 393 649 324 618 361 l 511 140 b 649 260 600 150 649 193 l 649 263 m 268 715 b 401 586 268 657 294 619 l 401 832 b 268 717 313 824 268 778 l 268 715 "},"£":{"ha":894,"x_min":0,"x_max":0,"o":"m 88 108 l 197 142 l 197 386 l 88 386 l 88 531 l 197 531 l 197 658 b 283 900 197 760 228 844 b 517 986 338 956 417 986 b 824 831 671 986 758 918 l 693 726 b 519 828 643 790 596 828 b 417 789 475 828 443 814 b 371 654 388 758 371 713 l 371 531 l 717 531 l 717 386 l 371 386 l 371 149 l 822 149 l 822 0 l 88 0 "},"€":{"ha":1000,"x_min":0,"x_max":0,"o":"m 807 710 b 593 836 747 792 690 836 b 379 667 494 836 418 771 l 678 667 l 678 549 l 353 549 b 350 488 350 529 350 508 b 351 432 350 468 350 450 l 678 432 l 678 313 l 378 313 b 604 136 417 203 496 136 b 817 269 697 136 753 185 l 939 179 b 603 -17 860 64 761 -17 b 199 313 397 -17 253 115 l 72 313 l 72 432 l 179 432 b 178 485 178 449 178 467 b 181 549 178 506 178 528 l 72 549 l 72 667 l 203 667 b 597 989 258 854 400 989 b 936 806 767 989 863 911 "},"¥":{"ha":953,"x_min":0,"x_max":0,"o":"m 126 490 l 346 490 l 26 972 l 225 972 l 478 565 l 733 972 l 926 972 l 604 490 l 826 490 l 826 367 l 558 367 l 558 265 l 826 265 l 826 142 l 558 142 l 558 0 l 394 0 l 394 142 l 126 142 l 126 265 l 394 265 l 394 367 l 126 367 "},"¢":{"ha":807,"x_min":0,"x_max":0,"o":"m 582 857 b 746 749 644 838 699 801 l 644 640 b 547 708 613 672 581 694 l 460 257 b 650 349 536 258 597 296 l 747 251 b 446 111 675 169 583 111 l 436 111 l 414 -8 l 292 -8 l 319 133 b 72 490 174 185 72 325 l 72 493 b 453 875 72 703 233 875 l 464 875 l 485 981 l 607 981 m 236 493 b 353 281 236 397 281 318 l 442 729 b 236 496 324 725 236 622 l 236 493 "},"฿":{"ha":894,"x_min":0,"x_max":0,"o":"m 563 1083 l 549 969 b 807 724 703 953 807 865 b 653 503 807 599 733 536 b 835 269 760 463 835 400 b 489 0 835 93 696 0 l 435 0 l 418 -164 l 306 -164 l 322 0 l 104 0 l 104 972 l 438 972 l 450 1083 m 478 428 l 446 142 l 493 142 b 679 286 608 142 679 192 b 488 428 679 376 613 428 m 396 553 l 428 831 l 257 831 l 257 553 m 651 696 b 524 828 651 769 606 817 l 492 553 b 651 696 590 558 651 606 m 349 142 l 382 428 l 257 428 l 257 142 "},"₡":{"ha":853,"x_min":0,"x_max":0,"o":"m 719 1083 l 699 933 b 799 871 736 917 768 894 l 733 728 b 672 776 714 744 693 761 l 585 150 b 721 239 635 165 676 197 l 804 128 b 568 3 736 64 665 18 l 546 -164 l 460 -164 l 482 -1 b 374 15 444 0 408 6 l 350 -164 l 265 -164 l 294 47 b 63 479 156 119 63 272 l 63 492 b 424 967 63 754 215 932 l 439 1083 l 525 1083 l 510 974 b 617 961 549 972 583 969 l 633 1083 m 390 158 b 504 139 425 144 463 139 l 506 139 l 600 815 b 501 833 569 826 536 833 l 485 833 l 390 158 m 218 476 b 321 203 218 349 257 258 l 406 817 b 218 488 293 776 218 661 l 218 476 "},"ƒ":{"ha":732,"x_min":0,"x_max":0,"o":"m 135 -7 b 57 0 101 -7 81 -6 l 57 138 b 113 133 76 135 93 133 b 214 226 171 133 203 160 l 263 494 l 151 494 l 151 635 l 286 635 l 311 764 b 554 979 338 904 404 979 b 682 964 607 979 647 974 l 682 822 b 586 836 649 831 615 836 b 474 729 521 836 488 804 l 457 635 l 633 635 l 633 494 l 432 494 l 379 201 b 135 -7 353 53 278 -7 "},"₦":{"ha":1158,"x_min":0,"x_max":0,"o":"m 971 292 l 971 0 l 796 0 l 615 292 l 349 292 l 349 0 l 188 0 l 188 292 l 47 292 l 47 399 l 188 399 l 188 579 l 47 579 l 47 686 l 188 686 l 188 972 l 376 972 l 551 686 l 810 686 l 810 972 l 971 972 l 971 686 l 1113 686 l 1113 579 l 971 579 l 971 399 l 1113 399 l 1113 292 m 346 394 l 557 394 l 350 732 l 346 732 m 813 260 l 813 583 l 608 583 l 808 260 "},"₱":{"ha":1038,"x_min":0,"x_max":0,"o":"m 182 583 l 42 583 l 42 686 l 182 686 l 182 972 l 508 972 b 875 686 717 972 853 856 l 1010 686 l 1010 583 l 875 583 b 489 289 851 394 686 289 l 354 289 l 354 0 l 182 0 m 492 435 b 706 589 611 435 689 496 l 349 589 l 349 435 l 492 435 m 349 681 l 703 681 b 490 825 685 775 607 825 l 349 825 "},"₨":{"ha":1525,"x_min":0,"x_max":0,"o":"m 108 972 l 458 972 b 801 665 668 972 801 858 l 801 660 b 601 375 801 511 718 417 l 829 0 l 643 0 l 438 342 l 269 342 l 269 0 l 108 0 m 1200 -14 b 897 88 1089 -14 985 24 l 968 199 b 1204 115 1044 144 1122 115 b 1318 196 1269 115 1318 147 l 1318 199 b 1164 306 1318 242 1290 264 b 932 524 1011 356 932 408 l 932 526 b 1189 744 932 663 1044 744 b 1446 668 1278 744 1369 717 l 1385 550 b 1186 617 1318 590 1251 617 b 1078 542 1119 617 1078 583 l 1078 539 b 1235 429 1078 494 1110 469 b 1464 211 1389 379 1464 326 l 1464 208 b 1200 -14 1464 64 1344 -14 m 451 485 b 639 654 564 485 639 547 l 639 658 b 449 825 639 771 564 825 l 269 825 l 269 485 "},"₩":{"ha":1547,"x_min":0,"x_max":0,"o":"m 1361 676 l 1499 676 l 1499 565 l 1332 565 l 1289 408 l 1499 408 l 1499 297 l 1260 297 l 1179 -3 l 985 -3 l 901 297 l 644 297 l 563 -3 l 368 -3 l 288 297 l 49 297 l 49 408 l 257 408 l 215 565 l 49 565 l 49 676 l 185 676 l 106 972 l 289 972 l 358 676 l 599 676 l 679 975 l 874 975 l 953 676 l 1194 676 l 1264 972 l 1442 972 m 669 403 l 876 403 l 778 779 l 769 779 m 475 185 l 575 569 l 378 569 l 467 185 m 1086 185 l 1174 569 l 978 569 l 1078 185 "},"₪":{"ha":871,"x_min":0,"x_max":0,"o":"m 285 458 l 376 458 l 408 254 b 543 139 421 175 463 139 l 654 139 l 654 733 l 783 733 l 783 0 l 542 0 b 324 193 410 0 343 63 m 476 478 b 356 596 476 557 436 596 l 217 596 l 217 0 l 88 0 l 88 733 l 381 733 b 568 549 501 733 568 669 l 568 279 l 476 279 l 476 478 "},"#":{"ha":972,"x_min":0,"x_max":0,"o":"m 867 224 l 701 224 l 664 0 l 515 0 l 553 224 l 326 224 l 289 0 l 140 0 l 178 224 l 54 224 l 54 368 l 203 368 l 244 610 l 106 610 l 106 754 l 269 754 l 307 972 l 456 972 l 418 754 l 644 754 l 682 972 l 831 972 l 793 754 l 918 754 l 918 610 l 768 610 l 726 368 l 867 368 m 349 364 l 581 364 l 624 614 l 392 614 "},"¶":{"ha":774,"x_min":0,"x_max":0,"o":"m 481 339 l 456 339 b 56 654 228 339 56 447 l 56 657 b 432 972 56 854 210 972 l 653 972 l 653 0 l 481 0 "},"§":{"ha":878,"x_min":0,"x_max":0,"o":"m 649 324 b 726 192 697 294 726 244 l 726 189 b 453 -14 726 67 624 -14 b 132 118 317 -14 210 36 l 228 213 b 451 114 292 153 364 114 b 564 182 528 114 564 143 l 564 185 b 381 282 564 225 524 250 b 81 485 165 331 81 385 l 81 488 b 229 649 81 578 144 626 b 153 781 179 681 153 728 l 153 783 b 425 986 153 907 256 986 b 746 854 561 986 668 938 l 650 760 b 426 858 586 819 514 858 b 314 790 353 858 314 831 l 314 788 b 497 690 314 750 347 725 b 797 488 713 642 797 589 l 797 485 b 649 324 797 396 733 346 m 539 386 b 646 461 601 386 646 418 l 646 464 b 483 561 646 504 601 532 b 339 586 413 579 371 586 b 232 511 276 586 232 554 l 232 508 b 396 411 232 468 276 440 b 539 386 465 393 507 386 "},"ª":{"ha":542,"x_min":0,"x_max":0,"o":"m 221 560 b 78 685 144 560 78 603 l 78 688 b 244 817 78 774 147 817 b 350 801 289 817 319 810 l 350 808 b 253 893 350 863 315 893 b 138 867 210 893 176 882 l 111 942 b 265 976 158 964 200 976 b 400 931 326 976 371 961 b 443 807 429 903 443 858 l 443 568 l 349 568 l 349 615 b 221 560 319 582 279 560 m 74 472 l 449 472 l 449 392 l 74 392 m 246 631 b 350 714 306 631 350 665 l 350 739 b 263 754 326 747 299 754 b 174 692 207 754 174 731 l 174 689 b 246 631 174 653 204 631 "},"º":{"ha":542,"x_min":0,"x_max":0,"o":"m 269 558 b 61 767 150 558 61 651 l 61 769 b 272 979 61 885 151 979 b 481 771 393 979 481 886 l 481 768 b 269 558 481 653 390 558 m 71 472 l 471 472 l 471 392 l 71 392 m 272 644 b 383 767 340 644 383 700 l 383 769 b 269 893 383 836 336 893 b 158 771 203 893 158 838 l 158 768 b 272 644 158 701 206 644 "},"°":{"ha":654,"x_min":0,"x_max":0,"o":"m 328 529 b 96 754 206 529 96 633 l 96 757 b 328 981 96 878 206 981 b 558 757 449 981 558 878 l 558 754 b 328 529 558 633 449 529 m 328 621 b 458 754 403 621 458 683 l 458 757 b 328 889 458 828 403 889 b 196 757 251 889 196 828 l 196 754 b 328 621 196 683 251 621 "},"%":{"ha":1179,"x_min":0,"x_max":0,"o":"m 294 486 b 67 732 158 486 67 599 l 67 735 b 297 983 67 871 160 983 b 525 738 435 983 525 871 l 525 735 b 294 486 525 600 433 486 m 294 876 b 190 738 229 876 190 813 l 190 735 b 297 593 190 656 235 593 b 401 732 363 593 401 657 l 401 735 b 294 876 401 813 357 876 m 876 972 l 1014 972 l 631 454 l 303 0 l 165 0 l 547 517 m 882 -11 b 654 235 746 -11 654 101 l 654 238 b 885 486 654 374 747 486 b 1113 240 1021 486 1113 374 l 1113 238 b 882 -11 1113 103 1019 -11 m 885 96 b 989 235 950 96 989 160 l 989 238 b 882 379 989 315 944 379 b 778 240 817 379 778 315 l 778 238 b 885 96 778 158 822 96 "},"‰":{"ha":1706,"x_min":0,"x_max":0,"o":"m 297 593 b 401 732 363 593 401 657 l 401 735 b 294 876 401 813 357 876 b 190 738 229 876 190 813 l 190 735 b 297 593 190 656 235 593 m 294 486 b 67 732 158 486 67 599 l 67 735 b 297 983 67 871 160 983 b 525 738 435 983 525 871 l 525 735 b 294 486 525 600 433 486 m 631 454 l 303 0 l 165 0 l 547 517 l 876 972 l 1014 972 m 885 96 b 989 235 950 96 989 160 l 989 238 b 882 379 989 315 944 379 b 778 240 817 379 778 315 l 778 238 b 885 96 778 158 822 96 m 882 -11 b 654 235 746 -11 654 101 l 654 238 b 885 486 654 374 747 486 b 1113 240 1021 486 1113 374 l 1113 238 b 882 -11 1113 103 1019 -11 m 1411 96 b 1515 235 1476 96 1515 160 l 1515 238 b 1408 379 1515 315 1471 379 b 1304 240 1343 379 1304 315 l 1304 238 b 1411 96 1304 158 1349 96 m 1408 -11 b 1181 235 1272 -11 1181 101 l 1181 238 b 1411 486 1181 374 1274 486 b 1639 240 1547 486 1639 374 l 1639 238 b 1408 -11 1639 103 1546 -11 "},"\"":{"ha":676,"x_min":0,"x_max":0,"o":"m 421 972 l 611 972 l 611 965 l 475 557 l 389 557 m 115 972 l 307 972 l 307 965 l 171 557 l 83 557 "},"'":{"ha":374,"x_min":0,"x_max":0,"o":"m 115 972 l 308 972 l 308 965 l 172 557 l 83 557 "},"+":{"ha":881,"x_min":0,"x_max":0,"o":"m 361 413 l 94 413 l 94 567 l 361 567 l 361 831 l 519 831 l 519 567 l 786 567 l 786 413 l 519 413 l 519 147 l 361 147 "},"−":{"ha":881,"x_min":0,"x_max":0,"o":"m 94 411 l 94 568 l 786 568 l 786 411 "},"÷":{"ha":881,"x_min":0,"x_max":0,"o":"m 347 867 l 533 867 l 533 690 l 347 690 m 94 417 l 94 561 l 786 561 l 786 417 m 347 289 l 533 289 l 533 111 l 347 111 "},"=":{"ha":881,"x_min":0,"x_max":0,"o":"m 106 740 l 775 740 l 775 585 l 106 585 m 106 393 l 775 393 l 775 238 l 106 238 "},"×":{"ha":881,"x_min":0,"x_max":0,"o":"m 439 388 l 213 157 l 108 261 l 339 488 l 108 714 l 215 821 l 442 590 l 668 821 l 772 717 l 542 490 l 772 264 l 665 157 "},"<":{"ha":881,"x_min":0,"x_max":0,"o":"m 93 414 l 93 564 l 757 871 l 757 711 l 260 490 l 757 268 l 757 107 "},">":{"ha":881,"x_min":0,"x_max":0,"o":"m 125 267 l 621 488 l 125 710 l 125 871 l 789 564 l 789 414 l 125 107 "},"±":{"ha":881,"x_min":0,"x_max":0,"o":"m 515 518 l 517 263 l 364 263 l 365 518 l 104 518 l 104 667 l 365 665 l 364 922 l 517 922 l 515 665 l 778 667 l 778 518 m 104 0 l 104 143 l 778 143 l 778 0 "},"½":{"ha":1146,"x_min":0,"x_max":0,"o":"m 681 86 l 872 247 b 969 385 940 304 969 338 b 885 461 969 431 932 461 b 756 379 836 461 794 432 l 683 436 b 890 554 735 508 792 554 b 1075 393 1000 554 1075 488 b 957 203 1075 318 1040 271 l 818 89 l 1079 89 l 1079 0 l 681 0 m 511 506 l 822 972 l 921 972 l 572 467 l 261 0 l 163 0 m 207 432 l 207 874 l 97 832 l 69 917 l 232 981 l 307 981 l 307 432 "},"⅓":{"ha":1146,"x_min":0,"x_max":0,"o":"m 878 -14 b 667 75 783 -14 718 24 l 728 149 b 879 78 769 106 822 78 b 974 158 929 78 974 110 b 857 238 974 210 925 238 l 799 238 l 782 301 l 939 449 l 700 449 l 700 540 l 1067 540 l 1067 461 l 906 314 b 1075 161 1000 306 1075 258 b 878 -14 1075 57 996 -14 m 207 432 l 207 874 l 97 832 l 69 917 l 232 981 l 307 981 l 307 432 m 496 506 l 807 972 l 906 972 l 557 467 l 246 0 l 147 0 "},"⅔":{"ha":1250,"x_min":0,"x_max":0,"o":"m 982 -14 b 771 75 888 -14 822 24 l 832 149 b 983 78 874 106 926 78 b 1078 158 1033 78 1078 110 b 961 238 1078 210 1029 238 l 903 238 l 886 301 l 1043 449 l 804 449 l 804 540 l 1171 540 l 1171 461 l 1010 314 b 1179 161 1104 306 1179 258 b 982 -14 1179 57 1100 -14 m 63 519 l 254 679 b 351 817 322 736 351 769 b 267 893 351 863 314 893 b 138 811 218 893 176 864 l 65 868 b 272 986 117 942 174 986 b 457 825 382 986 457 919 b 339 635 457 750 422 703 l 200 522 l 461 522 l 461 432 l 63 432 m 594 506 l 906 972 l 1004 972 l 656 467 l 344 0 l 246 0 "},"¼":{"ha":1146,"x_min":0,"x_max":0,"o":"m 1018 -3 l 925 -3 l 925 115 l 664 115 l 650 208 l 914 546 l 1018 546 l 1018 196 l 1092 196 l 1092 115 l 1018 115 m 525 506 l 836 972 l 935 972 l 586 467 l 275 0 l 176 0 m 207 432 l 207 874 l 97 832 l 69 917 l 232 981 l 307 981 l 307 432 m 926 435 l 742 196 l 926 196 "},"¾":{"ha":1250,"x_min":0,"x_max":0,"o":"m 1122 -3 l 1029 -3 l 1029 115 l 768 115 l 754 208 l 1018 546 l 1122 546 l 1122 196 l 1196 196 l 1196 115 l 1122 115 m 274 418 b 63 507 179 418 114 456 l 124 581 b 275 510 165 538 218 510 b 369 590 325 510 369 542 b 253 671 369 643 321 671 l 194 671 l 178 733 l 335 881 l 96 881 l 96 972 l 463 972 l 463 893 l 301 746 b 471 593 396 739 471 690 b 274 418 471 489 392 418 m 622 506 l 933 972 l 1032 972 l 683 467 l 372 0 l 274 0 m 1031 435 l 846 196 l 1031 196 "},"⅕":{"ha":1146,"x_min":0,"x_max":0,"o":"m 876 -14 b 668 69 790 -14 725 21 l 729 144 b 878 79 778 103 825 79 b 985 168 940 79 985 115 b 876 253 985 221 940 253 b 768 231 836 253 796 243 l 704 269 l 725 540 l 1060 540 l 1060 447 l 808 447 l 799 325 b 896 340 824 335 861 340 b 1086 174 1001 340 1086 282 b 876 -14 1086 60 1001 -14 m 207 432 l 207 874 l 97 832 l 69 917 l 232 981 l 307 981 l 307 432 m 503 506 l 814 972 l 913 972 l 564 467 l 253 0 l 154 0 "},"⅖":{"ha":1250,"x_min":0,"x_max":0,"o":"m 981 -14 b 772 69 894 -14 829 21 l 833 144 b 982 79 882 103 929 79 b 1089 168 1044 79 1089 115 b 981 253 1089 221 1044 253 b 872 231 940 253 900 243 l 808 269 l 829 540 l 1164 540 l 1164 447 l 913 447 l 903 325 b 1000 340 928 335 965 340 b 1190 174 1106 340 1190 282 b 981 -14 1190 60 1106 -14 m 608 506 l 919 972 l 1018 972 l 669 467 l 358 0 l 260 0 m 63 519 l 254 679 b 351 817 322 736 351 769 b 267 893 351 863 314 893 b 138 811 218 893 176 864 l 65 868 b 272 986 117 942 174 986 b 457 825 382 986 457 919 b 339 635 457 750 422 703 l 200 522 l 461 522 l 461 432 l 63 432 "},"⅗":{"ha":1250,"x_min":0,"x_max":0,"o":"m 981 -14 b 772 69 894 -14 829 21 l 833 144 b 982 79 882 103 929 79 b 1089 168 1044 79 1089 115 b 981 253 1089 221 1044 253 b 872 231 940 253 900 243 l 808 269 l 829 540 l 1164 540 l 1164 447 l 913 447 l 903 325 b 1000 340 928 335 965 340 b 1190 174 1106 340 1190 282 b 981 -14 1190 60 1106 -14 m 588 506 l 899 972 l 997 972 l 649 467 l 338 0 l 239 0 m 260 418 b 49 507 165 418 100 456 l 110 581 b 261 510 151 538 204 510 b 356 590 311 510 356 542 b 239 671 356 643 307 671 l 181 671 l 164 733 l 321 881 l 82 881 l 82 972 l 449 972 l 449 893 l 288 746 b 457 593 382 739 457 690 b 260 418 457 489 378 418 "},"⅘":{"ha":1250,"x_min":0,"x_max":0,"o":"m 414 429 l 321 429 l 321 547 l 60 547 l 46 642 l 310 979 l 414 979 l 414 628 l 488 628 l 488 547 l 414 547 m 981 -14 b 772 69 894 -14 829 21 l 833 144 b 982 79 882 103 929 79 b 1089 168 1044 79 1089 115 b 981 253 1089 221 1044 253 b 872 231 940 253 900 243 l 808 269 l 829 540 l 1164 540 l 1164 447 l 913 447 l 903 325 b 1000 340 928 335 965 340 b 1190 174 1106 340 1190 282 b 981 -14 1190 60 1106 -14 m 608 506 l 919 972 l 1018 972 l 669 467 l 358 0 l 260 0 m 322 867 l 138 628 l 322 628 "},"⅙":{"ha":1146,"x_min":0,"x_max":0,"o":"m 883 -14 b 740 40 825 -14 774 8 b 671 253 701 81 671 139 l 671 256 b 904 554 671 435 754 554 b 1064 497 976 554 1019 533 l 1014 418 b 901 463 981 446 947 463 b 776 306 833 463 782 399 b 901 349 807 331 843 349 b 1081 176 999 349 1081 289 b 883 -14 1081 64 997 -14 m 511 506 l 822 972 l 921 972 l 572 467 l 261 0 l 163 0 m 207 432 l 207 874 l 97 832 l 69 917 l 232 981 l 307 981 l 307 432 m 881 74 b 983 171 940 74 983 113 b 882 268 983 231 943 268 b 778 171 819 268 778 231 b 881 74 778 113 824 74 "},"⅚":{"ha":1250,"x_min":0,"x_max":0,"o":"m 988 -14 b 844 40 929 -14 878 8 b 775 253 806 81 775 139 l 775 256 b 1008 554 775 435 858 554 b 1168 497 1081 554 1124 533 l 1118 418 b 1006 463 1085 446 1051 463 b 881 306 938 463 886 399 b 1006 349 911 331 947 349 b 1185 176 1103 349 1185 289 b 988 -14 1185 64 1101 -14 m 258 418 b 50 501 172 418 107 453 l 111 578 b 260 511 160 535 207 511 b 367 600 322 511 367 547 b 258 686 367 653 322 686 b 150 663 218 686 178 676 l 86 701 l 107 972 l 442 972 l 442 879 l 190 879 l 181 757 b 278 772 206 767 243 772 b 468 606 383 772 468 714 b 258 418 468 493 383 418 m 594 506 l 906 972 l 1004 972 l 656 467 l 344 0 l 246 0 m 985 74 b 1088 171 1044 74 1088 113 b 986 268 1088 231 1047 268 b 882 171 924 268 882 231 b 985 74 882 113 928 74 "},"⅛":{"ha":1146,"x_min":0,"x_max":0,"o":"m 882 -14 b 676 147 761 -14 676 49 b 768 281 676 213 713 254 b 692 403 724 304 692 343 b 883 554 692 489 769 554 b 1072 403 994 554 1072 489 b 996 281 1072 342 1040 306 b 1088 149 1050 254 1088 213 b 882 -14 1088 49 1001 -14 m 882 472 b 786 394 825 472 786 440 b 882 314 786 347 826 314 b 978 394 936 314 978 346 b 882 472 978 440 938 472 m 882 236 b 772 151 818 236 772 203 b 882 67 772 101 815 67 b 990 151 949 67 990 100 b 882 236 990 203 946 236 m 207 432 l 207 874 l 97 832 l 69 917 l 232 981 l 307 981 l 307 432 m 506 506 l 817 972 l 915 972 l 567 467 l 256 0 l 157 0 "},"⅜":{"ha":1250,"x_min":0,"x_max":0,"o":"m 986 -14 b 781 147 865 -14 781 49 b 872 281 781 213 817 254 b 796 403 828 304 796 343 b 988 554 796 489 874 554 b 1176 403 1099 554 1176 489 b 1100 281 1176 342 1144 306 b 1192 149 1154 254 1192 213 b 986 -14 1192 49 1106 -14 m 986 472 b 890 394 929 472 890 440 b 986 314 890 347 931 314 b 1082 394 1040 314 1082 346 b 986 472 1082 440 1042 472 m 986 236 b 876 151 922 236 876 203 b 986 67 876 101 919 67 b 1094 151 1053 67 1094 100 b 986 236 1094 203 1050 236 m 594 506 l 906 972 l 1004 972 l 656 467 l 344 0 l 246 0 m 260 418 b 49 507 165 418 100 456 l 110 581 b 261 510 151 538 204 510 b 356 590 311 510 356 542 b 239 671 356 643 307 671 l 181 671 l 164 733 l 321 881 l 82 881 l 82 972 l 449 972 l 449 893 l 288 746 b 457 593 382 739 457 690 b 260 418 457 489 378 418 "},"⅝":{"ha":1250,"x_min":0,"x_max":0,"o":"m 986 -14 b 781 147 865 -14 781 49 b 872 281 781 213 817 254 b 796 403 828 304 796 343 b 988 554 796 489 874 554 b 1176 403 1099 554 1176 489 b 1100 281 1176 342 1144 306 b 1192 149 1154 254 1192 213 b 986 -14 1192 49 1106 -14 m 986 472 b 890 394 929 472 890 440 b 986 314 890 347 931 314 b 1082 394 1040 314 1082 346 b 986 472 1082 440 1042 472 m 986 236 b 876 151 922 236 876 203 b 986 67 876 101 919 67 b 1094 151 1053 67 1094 100 b 986 236 1094 203 1050 236 m 594 506 l 906 972 l 1004 972 l 656 467 l 344 0 l 246 0 m 258 418 b 50 501 172 418 107 453 l 111 578 b 260 511 160 535 207 511 b 367 600 322 511 367 547 b 258 686 367 653 322 686 b 150 663 218 686 178 676 l 86 701 l 107 972 l 442 972 l 442 879 l 190 879 l 181 757 b 278 772 206 767 243 772 b 468 606 383 772 468 714 b 258 418 468 493 383 418 "},"⅞":{"ha":1250,"x_min":0,"x_max":0,"o":"m 986 -14 b 781 147 865 -14 781 49 b 872 281 781 213 817 254 b 796 403 828 304 796 343 b 988 554 796 489 874 554 b 1176 403 1099 554 1176 489 b 1100 281 1176 342 1144 306 b 1192 149 1154 254 1192 213 b 986 -14 1192 49 1106 -14 m 986 472 b 890 394 929 472 890 440 b 986 314 890 347 931 314 b 1082 394 1040 314 1082 346 b 986 472 1082 440 1042 472 m 986 236 b 876 151 922 236 876 203 b 986 67 876 101 919 67 b 1094 151 1053 67 1094 100 b 986 236 1094 203 1050 236 m 122 429 l 357 878 l 90 878 l 90 972 l 474 972 l 474 894 l 236 429 m 553 506 l 864 972 l 963 972 l 614 467 l 303 0 l 204 0 "},"⁰":{"ha":556,"x_min":0,"x_max":0,"o":"m 276 571 b 60 851 151 571 60 682 l 60 857 b 278 1139 60 1028 153 1139 b 497 858 403 1139 497 1028 l 497 853 b 276 571 497 682 401 571 m 276 1044 b 164 860 211 1044 164 978 l 164 850 b 278 665 164 733 211 665 b 392 850 343 665 392 732 l 392 860 b 276 1044 392 976 342 1044 "},"¹":{"ha":451,"x_min":0,"x_max":0,"o":"m 208 585 l 208 1026 l 99 985 l 71 1069 l 233 1132 l 308 1132 l 308 585 "},"²":{"ha":556,"x_min":0,"x_max":0,"o":"m 76 671 l 268 832 b 365 969 336 889 365 922 b 281 1046 365 1015 328 1046 b 151 964 232 1046 190 1017 l 79 1021 b 286 1139 131 1093 188 1139 b 471 978 396 1139 471 1072 b 353 788 471 903 436 856 l 214 674 l 475 674 l 475 585 l 76 585 "},"³":{"ha":556,"x_min":0,"x_max":0,"o":"m 274 571 b 63 660 179 571 114 608 l 124 733 b 275 663 165 690 218 663 b 369 743 325 663 369 694 b 253 822 369 794 321 822 l 194 822 l 178 886 l 335 1033 l 96 1033 l 96 1125 l 463 1125 l 463 1046 l 301 899 b 471 746 396 890 471 843 b 274 571 471 642 392 571 "},"⁴":{"ha":556,"x_min":0,"x_max":0,"o":"m 428 582 l 335 582 l 335 700 l 74 700 l 60 793 l 324 1131 l 428 1131 l 428 781 l 501 781 l 501 700 l 428 700 m 336 1019 l 151 781 l 336 781 "},"⁵":{"ha":556,"x_min":0,"x_max":0,"o":"m 272 571 b 64 654 186 571 121 606 l 125 729 b 274 664 174 688 221 664 b 381 753 336 664 381 700 b 272 838 381 806 336 838 b 164 815 232 838 192 828 l 100 854 l 121 1125 l 456 1125 l 456 1032 l 204 1032 l 194 910 b 292 925 219 919 257 925 b 482 758 397 925 482 867 b 272 571 482 644 397 571 "},"⁶":{"ha":556,"x_min":0,"x_max":0,"o":"m 279 571 b 136 625 221 571 169 593 b 67 838 97 665 67 724 l 67 840 b 300 1139 67 1019 150 1139 b 460 1082 372 1139 415 1118 l 410 1003 b 297 1047 376 1031 343 1047 b 172 890 229 1047 178 983 b 297 933 203 915 239 933 b 476 761 394 933 476 874 b 279 571 476 649 393 571 m 276 658 b 379 756 336 658 379 697 b 278 853 379 815 339 853 b 174 756 215 853 174 815 b 276 658 174 697 219 658 "},"⁷":{"ha":556,"x_min":0,"x_max":0,"o":"m 122 582 l 357 1029 l 90 1029 l 90 1125 l 474 1125 l 474 1047 l 236 582 "},"⁸":{"ha":556,"x_min":0,"x_max":0,"o":"m 278 571 b 72 732 157 571 72 633 b 164 865 72 797 108 839 b 88 988 119 889 88 928 b 279 1139 88 1074 165 1139 b 468 988 390 1139 468 1074 b 392 865 468 926 436 890 b 483 733 446 839 483 797 b 278 571 483 633 397 571 m 278 1057 b 182 979 221 1057 182 1025 b 278 899 182 932 222 899 b 374 979 332 899 374 931 b 278 1057 374 1025 333 1057 m 278 821 b 168 736 214 821 168 788 b 278 651 168 686 211 651 b 386 736 344 651 386 685 b 278 821 386 788 342 821 "},"⁹":{"ha":556,"x_min":0,"x_max":0,"o":"m 276 1139 b 419 1083 335 1139 386 1117 b 489 872 458 1044 489 986 l 489 869 b 256 571 489 688 406 571 b 88 632 183 571 132 594 l 138 711 b 258 663 171 682 211 663 b 382 814 325 663 378 722 b 260 771 351 789 319 771 b 79 946 164 771 79 831 b 276 1139 79 1058 164 1139 m 278 851 b 382 951 340 851 382 889 b 279 1051 382 1011 336 1051 b 176 951 221 1051 176 1011 b 278 851 176 890 217 851 "},"₀":{"ha":556,"x_min":0,"x_max":0,"o":"m 276 -197 b 60 83 151 -197 60 -86 l 60 89 b 278 371 60 260 153 371 b 497 90 403 371 497 260 l 497 85 b 276 -197 497 -86 401 -197 m 276 276 b 164 92 211 276 164 210 l 164 82 b 278 -103 164 -35 211 -103 b 392 82 343 -103 392 -36 l 392 92 b 276 276 392 208 342 276 "},"₁":{"ha":451,"x_min":0,"x_max":0,"o":"m 208 -183 l 208 258 l 99 217 l 71 301 l 233 364 l 308 364 l 308 -183 "},"₂":{"ha":556,"x_min":0,"x_max":0,"o":"m 76 -97 l 268 64 b 365 201 336 121 365 154 b 281 278 365 247 328 278 b 151 196 232 278 190 249 l 79 253 b 286 371 131 325 188 371 b 471 210 396 371 471 304 b 353 19 471 135 436 88 l 214 -94 l 475 -94 l 475 -183 l 76 -183 "},"₃":{"ha":556,"x_min":0,"x_max":0,"o":"m 274 -197 b 63 -108 179 -197 114 -160 l 124 -35 b 275 -106 165 -78 218 -106 b 369 -25 325 -106 369 -74 b 253 54 369 26 321 54 l 194 54 l 178 118 l 335 265 l 96 265 l 96 357 l 463 357 l 463 278 l 301 131 b 471 -22 396 122 471 75 b 274 -197 471 -126 392 -197 "},"₄":{"ha":556,"x_min":0,"x_max":0,"o":"m 428 -186 l 335 -186 l 335 -68 l 74 -68 l 60 25 l 324 363 l 428 363 l 428 13 l 501 13 l 501 -68 l 428 -68 m 336 251 l 151 13 l 336 13 "},"₅":{"ha":556,"x_min":0,"x_max":0,"o":"m 272 -197 b 64 -114 186 -197 121 -162 l 125 -39 b 274 -104 174 -81 221 -104 b 381 -15 336 -104 381 -68 b 272 69 381 38 336 69 b 164 47 232 69 192 60 l 100 86 l 121 357 l 456 357 l 456 264 l 204 264 l 194 142 b 292 157 219 151 257 157 b 482 -10 397 157 482 99 b 272 -197 482 -124 397 -197 "},"₆":{"ha":556,"x_min":0,"x_max":0,"o":"m 279 -197 b 136 -143 221 -197 169 -175 b 67 69 97 -103 67 -44 l 67 72 b 300 371 67 251 150 371 b 460 314 372 371 415 350 l 410 235 b 297 279 376 263 343 279 b 172 122 229 279 178 215 b 297 165 203 147 239 165 b 476 -7 394 165 476 106 b 279 -197 476 -119 393 -197 m 276 -110 b 379 -12 336 -110 379 -71 b 278 85 379 47 339 85 b 174 -12 215 85 174 47 b 276 -110 174 -71 219 -110 "},"₇":{"ha":556,"x_min":0,"x_max":0,"o":"m 122 -186 l 357 261 l 90 261 l 90 357 l 474 357 l 474 279 l 236 -186 "},"₈":{"ha":556,"x_min":0,"x_max":0,"o":"m 278 -197 b 72 -36 157 -197 72 -135 b 164 97 72 29 108 71 b 88 219 119 121 88 160 b 279 371 88 306 165 371 b 468 219 390 371 468 306 b 392 97 468 158 436 122 b 483 -35 446 71 483 29 b 278 -197 483 -135 397 -197 m 278 289 b 182 211 221 289 182 257 b 278 131 182 164 222 131 b 374 211 332 131 374 163 b 278 289 374 257 333 289 m 278 53 b 168 -32 214 53 168 19 b 278 -117 168 -82 211 -117 b 386 -32 344 -117 386 -83 b 278 53 386 19 342 53 "},"₉":{"ha":556,"x_min":0,"x_max":0,"o":"m 276 371 b 419 315 335 371 386 349 b 489 104 458 276 489 218 l 489 101 b 256 -197 489 -81 406 -197 b 88 -136 183 -197 132 -174 l 138 -57 b 258 -106 171 -86 211 -106 b 382 46 325 -106 378 -46 b 260 3 351 21 319 3 b 79 178 164 3 79 63 b 276 371 79 290 164 371 m 278 83 b 382 183 340 83 382 121 b 279 283 382 243 336 283 b 176 183 221 283 176 243 b 278 83 176 122 217 83 "}," ":{"ha":417,"x_min":0,"x_max":0,"o":""}," ":{"ha":417,"x_min":0,"x_max":0,"o":""}," ":{"ha":1389,"x_min":0,"x_max":0,"o":""}," ":{"ha":694,"x_min":0,"x_max":0,"o":""}," ":{"ha":463,"x_min":0,"x_max":0,"o":""}," ":{"ha":347,"x_min":0,"x_max":0,"o":""}," ":{"ha":185,"x_min":0,"x_max":0,"o":""}," ":{"ha":104,"x_min":0,"x_max":0,"o":""}," ":{"ha":833,"x_min":0,"x_max":0,"o":""},"^":{"ha":694,"x_min":0,"x_max":0,"o":"m 288 974 l 407 974 l 617 685 l 488 685 l 346 868 l 204 685 l 78 685 "},"~":{"ha":688,"x_min":0,"x_max":0,"o":"m 450 332 b 335 363 410 332 369 347 b 251 388 303 375 274 388 b 175 318 211 388 194 365 l 82 347 b 238 519 113 458 153 519 b 353 490 278 519 318 504 b 436 465 385 476 414 465 b 513 533 476 465 493 486 l 606 506 b 450 332 575 393 535 332 "},"⁄":{"ha":139,"x_min":0,"x_max":0,"o":"m 39 506 l 350 972 l 449 972 l 100 467 l -211 0 l -310 0 "},"´":{"ha":694,"x_min":0,"x_max":0,"o":"m 369 1054 l 522 986 l 351 826 l 225 826 "},"˝":{"ha":694,"x_min":0,"x_max":0,"o":"m 469 1054 l 617 986 l 446 826 l 324 826 m 231 1054 l 378 986 l 210 826 l 88 826 "},"`":{"ha":694,"x_min":0,"x_max":0,"o":"m 172 986 l 325 1054 l 469 826 l 343 826 "},"ˆ":{"ha":694,"x_min":0,"x_max":0,"o":"m 269 1031 l 425 1031 l 588 826 l 454 826 l 346 919 l 239 826 l 108 826 "},"ˇ":{"ha":694,"x_min":0,"x_max":0,"o":"m 425 826 l 269 826 l 108 1031 l 242 1031 l 349 938 l 457 1031 l 588 1031 "},"˘":{"ha":694,"x_min":0,"x_max":0,"o":"m 347 824 b 110 1025 214 824 119 897 l 225 1025 b 347 940 242 975 276 940 b 469 1025 418 940 453 975 l 586 1025 b 347 824 575 897 481 824 "},"˜":{"ha":694,"x_min":0,"x_max":0,"o":"m 454 826 b 338 856 413 826 372 842 b 254 882 307 869 278 882 b 178 813 214 882 199 860 l 85 842 b 240 1014 115 953 156 1014 b 357 985 282 1014 322 999 b 440 958 388 971 418 958 b 517 1028 481 958 496 981 l 610 1000 b 454 826 579 888 539 826 "},"¯":{"ha":694,"x_min":0,"x_max":0,"o":"m 111 964 l 583 964 l 583 842 l 111 842 "},"¨":{"ha":694,"x_min":0,"x_max":0,"o":"m 397 992 l 568 992 l 568 826 l 397 826 m 126 992 l 297 992 l 297 826 l 126 826 "},"˙":{"ha":694,"x_min":0,"x_max":0,"o":"m 260 992 l 435 992 l 435 826 l 260 826 "},"˚":{"ha":694,"x_min":0,"x_max":0,"o":"m 347 824 b 186 979 258 824 186 893 b 347 1135 186 1065 258 1135 b 508 979 436 1135 508 1065 b 347 824 508 893 436 824 m 347 886 b 440 979 399 886 440 928 b 347 1072 440 1031 399 1072 b 254 979 296 1072 254 1031 b 347 886 254 928 296 886 "},"̦":{"ha":694,"x_min":0,"x_max":0,"o":"m 243 -324 b 340 -229 313 -314 344 -283 l 265 -229 l 265 -89 l 429 -89 l 429 -208 b 254 -378 429 -322 368 -372 "},"¸":{"ha":694,"x_min":0,"x_max":0,"o":"m 182 -168 l 313 24 l 438 24 l 329 -231 "},"˛":{"ha":694,"x_min":0,"x_max":0,"o":"m 481 -228 b 436 -231 464 -229 449 -231 b 253 -114 317 -229 253 -181 b 325 17 253 -67 281 -26 l 438 10 b 381 -87 396 -29 381 -58 b 481 -147 381 -128 414 -147 "}}}
